<svg id="Layer_1" data-name="Layer 1" xmlns="http://www.w3.org/2000/svg" viewBox="0 0 20 20"><defs><style>.cls-1{fill:#fff;}</style></defs><title>Artboard 1</title><g id="Page-1"><g id="Group-3"><path id="Fill-1" class="cls-1" d="M15.65,12l-1.23-1.65-.28.22s0,.82,0,1.25-1,.37-1,0,0-3.41,0-3.76.94-.4.95,0,0,1.34,0,1.34l1.58-1.56c.2-.2.83.43.63.63s-1.23,1.29-1.23,1.29l1.3,1.7c.25.32-.53.91-.78.58m-3,.07H10.78c-.44,0-.37-.51-.37-.51s0-2.58,0-3.38c0-.56,1-.56,1,0s0,3,0,3h1.23c.44,0,.44.92,0,.92M9.2,11.82C9,11.23,9,11.21,9,11.21H7.33l-.19.64c-.2.45-1.05.08-.86-.37.27-.62,1.1-3,1.33-3.48s1-.29,1.13,0,1.07,2.8,1.33,3.49c.18.48-.7.81-.88.33M5.65,8.63v3.09c0,.43-1,.43-1,0,0-.59,0-3.1,0-3.1H3.75a.45.45,0,0,1,0-.9H6.57a.45.45,0,0,1,0,.9H5.65M9.92,2.27C5,2.27,1,5.39,1,9.25,1,11.76,2.69,14,5.23,15.19c-.19.69-.68,2.5-.77,2.88s.18.47.37.34l3.43-2.31a11.4,11.4,0,0,0,1.66.12c4.93,0,8.92-3.12,8.92-7s-4-7-8.92-7"/></g><polygon id="Fill-4" class="cls-1" points="7.64 10.36 8.71 10.36 8.2 8.76 7.64 10.36"/></g></svg>