<?xml version="1.0" encoding="utf-8"?>
<!-- Generator: Adobe Illustrator 21.0.0, SVG Export Plug-In . SVG Version: 6.00 Build 0)  -->
<svg version="1.1" id="레이어_1" xmlns="http://www.w3.org/2000/svg" xmlns:xlink="http://www.w3.org/1999/xlink" x="0px"
	 y="0px" viewBox="0 0 303.3 150.2" style="enable-background:new 0 0 303.3 150.2;" xml:space="preserve">
<style type="text/css">
	.st0{fill:none;stroke:#898989;stroke-width:2.5;stroke-linecap:round;stroke-miterlimit:10;}
	.st1{fill:#1A1A1A;}
	.st2{font-family:'JejuMyeongjo';}
	.st3{font-size:6px;}
	.st4{fill:#767B3E;}
	.st5{fill:#FFFFFF;}
	.st6{font-size:6.3px;}
	.st7{font-size:6.93px;}
	.st8{fill:#525F6D;}
	.st9{font-size:9.45px;}
	.st10{fill:#8599AD;}
	.st11{fill:#FFFFFF;stroke:#727171;stroke-width:1.5;stroke-linecap:round;stroke-miterlimit:10;}
	.st12{fill:#333333;}
	.st13{fill:#FFFFFF;stroke:#666F2E;stroke-width:2;stroke-miterlimit:10;}
	.st14{fill:#666F2E;}
	.st15{font-size:7.35px;}
	.st16{fill:#FFFFFF;stroke:#ED701A;stroke-width:2;stroke-miterlimit:10;}
	.st17{fill:#ED701A;}
</style>
<g>
	<line class="st0" x1="64" y1="12.1" x2="64" y2="148.1"/>
	<line class="st0" x1="38" y1="39" x2="265.8" y2="39"/>
	<line class="st0" x1="38" y1="125.2" x2="265.8" y2="125.2"/>
	<line class="st0" x1="151.9" y1="12.1" x2="151.9" y2="148.1"/>
	<line class="st0" x1="239.8" y1="12.1" x2="239.8" y2="148.1"/>
	<g>
		<text transform="matrix(1 0 0 1 53.6898 6.3988)" class="st1 st2 st3">한남대교</text>
	</g>
	<g>
		<text transform="matrix(1 0 0 1 6.1099 127.0374)" class="st1 st2 st3">고속터미널</text>
	</g>
	<g>
		<text transform="matrix(1 0 0 1 271.9169 41.6011)" class="st1 st2 st3">청담사거리</text>
	</g>
	<g>
		<text transform="matrix(1 0 0 1 271.9169 127.0374)" class="st1 st2 st3">강남구청</text>
	</g>
	<g>
		<text transform="matrix(1 0 0 1 141.6177 6.3988)" class="st1 st2 st3">동호대교</text>
	</g>
	<g>
		<text transform="matrix(1 0 0 1 157.9356 49.9785)" class="st1 st2 st3">강남을지병원</text>
	</g>
	<g>
		<text transform="matrix(1 0 0 1 157.9356 33.3779)" class="st1 st2 st3">포포인츠바이쉐라톤</text>
	</g>
	<g>
		<text transform="matrix(1 0 0 1 115.1597 33.0943)" class="st1 st2 st3">롯데하이마트</text>
	</g>
	<g>
		<text transform="matrix(1 0 0 1 123.4937 63.1369)" class="st1 st2 st3">SK주유소</text>
	</g>
	<g>
		<text transform="matrix(1 0 0 1 125.2515 102.1338)" class="st1 st2 st3">우리은행</text>
	</g>
	<g>
		<text transform="matrix(1 0 0 1 213.1588 99.2991)" class="st1 st2 st3">서울세관</text>
	</g>
	<g>
		<text transform="matrix(1 0 0 1 229.4527 6.3988)" class="st1 st2 st3">성수대교</text>
	</g>
	<g>
		<g>
			<circle class="st4" cx="160.9" cy="100.3" r="3.7"/>
			<g>
				<g>
					<path class="st5" d="M160.4,100.3c-0.3-0.1-0.5-0.3-0.7-0.5c-0.1-0.2-0.2-0.4-0.2-0.7c0-0.2,0-0.3,0.1-0.4
						c0.1-0.1,0.2-0.3,0.3-0.4c0.1-0.1,0.3-0.2,0.4-0.2c0.2-0.1,0.3-0.1,0.5-0.1c0.4,0,0.8,0.1,1,0.3c0.2,0.2,0.4,0.4,0.4,0.8
						c0,0.3-0.1,0.6-0.3,0.7c-0.2,0.2-0.4,0.3-0.7,0.4c0.4,0.2,0.6,0.3,0.8,0.5c0.2,0.2,0.3,0.5,0.3,0.8c0,0.2,0,0.3-0.1,0.5
						c-0.1,0.1-0.2,0.3-0.3,0.4c-0.1,0.1-0.3,0.2-0.5,0.3c-0.2,0.1-0.4,0.1-0.6,0.1c-0.5,0-0.8-0.1-1.1-0.3
						c-0.3-0.2-0.4-0.5-0.4-0.8c0-0.3,0.1-0.6,0.3-0.8C159.8,100.6,160,100.4,160.4,100.3z M160.7,100.4c-0.3,0.2-0.5,0.3-0.7,0.5
						c-0.1,0.2-0.2,0.4-0.2,0.7c0,0.3,0.1,0.5,0.3,0.6c0.2,0.2,0.4,0.2,0.7,0.2c0.3,0,0.6-0.1,0.7-0.2c0.2-0.2,0.3-0.4,0.3-0.7
						c0-0.3-0.1-0.5-0.3-0.6C161.3,100.7,161.1,100.5,160.7,100.4z M161,100c0.3-0.1,0.5-0.3,0.6-0.5c0.1-0.2,0.2-0.4,0.2-0.6
						c0-0.2-0.1-0.4-0.2-0.6c-0.2-0.2-0.4-0.2-0.7-0.2c-0.3,0-0.5,0.1-0.7,0.2c-0.2,0.1-0.2,0.3-0.2,0.6c0,0.2,0.1,0.5,0.3,0.6
						C160.4,99.7,160.7,99.9,161,100z"/>
				</g>
			</g>
		</g>
		<g>
			<text transform="matrix(1 0 0 1 159.3209 102.1361)"><tspan x="0" y="0" class="st1 st2 st6">    </tspan><tspan x="5.2" y="0" class="st1 st2 st7">번 출구</tspan><tspan x="0" y="8.3" class="st1 st2 st7">셔틀버스</tspan></text>
		</g>
	</g>
	<g>
		<text transform="matrix(1 0 0 1 168.7061 72.3291)" class="st8 st2 st9">파티오나인</text>
	</g>
	<path class="st10" d="M162.5,63.1c-2.5,0-4.6,2-4.6,4.6c0,0,0,0.1,0,0.1c0,0.3,0,0.5,0.1,0.8c0,0,0,0,0,0c0,0.1,0.1,0.3,0.1,0.4
		c0,0,0,0.1,0,0.1c0.1,0.2,0.2,0.5,0.3,0.7c0.9,1.9,2.1,3.6,3.4,5.3c0.4,0.5,1,0.5,1.3,0c0.3-0.4,0.5-0.7,0.8-1.1
		c1-1.3,1.9-2.7,2.6-4.3c0.1-0.2,0.2-0.5,0.3-0.7c0,0,0-0.1,0-0.1c0.1-0.2,0.1-0.4,0.1-0.7c0-0.1,0-0.1,0-0.2c0-0.1,0-0.2,0-0.3
		c0-0.1,0-0.1,0-0.2C167.1,65.2,165,63.1,162.5,63.1z M160.6,67.8c0-1,0.9-1.9,1.9-1.9c1,0,1.9,0.9,1.9,1.9c0,1-0.9,1.9-1.9,1.9
		C161.5,69.6,160.6,68.8,160.6,67.8z"/>
	<path class="st11" d="M251.2,44.7h-22.7c-1.6,0-2.8-1.3-2.8-2.8v-5.7c0-1.6,1.3-2.8,2.8-2.8h22.7c1.6,0,2.8,1.3,2.8,2.8v5.7
		C254,43.4,252.7,44.7,251.2,44.7z"/>
	<g>
		<text transform="matrix(1 0 0 1 228.161 41.321)" class="st12 st2 st7">도산대로</text>
	</g>
	<path class="st11" d="M58.3,92.5V69.8c0-1.6,1.3-2.8,2.8-2.8h5.7c1.6,0,2.8,1.3,2.8,2.8v22.7c0,1.6-1.3,2.8-2.8,2.8h-5.7
		C59.6,95.3,58.3,94.1,58.3,92.5z"/>
	<g>
		<text transform="matrix(6.123234e-17 1 -1 6.123234e-17 61.7119 69.4918)" class="st12 st2 st7">강남대로</text>
	</g>
	<g>
		<circle class="st13" cx="151.3" cy="125.2" r="12.8"/>
		<g>
			<text transform="matrix(1 0 0 1 143.0788 123.0911)"><tspan x="0" y="0" class="st14 st2 st15">7호선</tspan><tspan x="-0.9" y="8.3" class="st2 st7">학동역</tspan></text>
		</g>
	</g>
	<g>
		<circle class="st13" cx="64" cy="125.2" r="12.8"/>
		<text transform="matrix(1 0 0 1 55.8016 123.3013)"><tspan x="0" y="0" class="st14 st2 st15">7호선</tspan><tspan x="-0.9" y="8.3" class="st2 st7">논현역</tspan></text>
	</g>
	<g>
		<circle class="st16" cx="64" cy="39" r="12.8"/>
		<text transform="matrix(1 0 0 1 55.8016 36.9262)"><tspan x="0" y="0" class="st17 st2 st15">3호선</tspan><tspan x="-0.9" y="8.3" class="st2 st7">신사역</tspan></text>
	</g>
</g>
<path class="st8" d="M143.8,72.3c-0.9,0-1.7,0-2.6,0c0,0.1,0,0.1,0,0.2c0,0.3-0.2,0.5-0.5,0.5c-0.2,0-0.5-0.2-0.5-0.4c0,0,0,0,0,0
	c0-0.1,0-0.2-0.1-0.3c-0.1-0.1-0.1-0.2-0.1-0.3c0-0.8,0-1.7,0-2.5c0-0.5,0-1,0-1.5c0-0.3,0.1-0.5,0.4-0.6c0.3-0.1,0.7-0.2,1.1-0.2
	c0.6-0.1,1.3-0.1,1.9,0c0.4,0,0.8,0.1,1.3,0.2c0.3,0.1,0.4,0.3,0.4,0.6c0,1.4,0,2.7,0,4.1c0,0.2-0.1,0.3-0.2,0.4c0,0,0,0.1,0,0.1
	c0,0.1,0,0.2-0.1,0.3c-0.1,0.2-0.3,0.3-0.5,0.3c-0.2,0-0.4-0.2-0.4-0.4C143.8,72.5,143.8,72.4,143.8,72.3z M142.5,70.5
	c0.6,0,1.2,0,1.8,0c0.2,0,0.2,0,0.2-0.2c0-0.6,0-1.2,0-1.8c0-0.2,0-0.2-0.2-0.2c-1.2,0-2.5,0-3.7,0c-0.2,0-0.2,0-0.2,0.2
	c0,0.6,0,1.2,0,1.8c0,0.2,0,0.2,0.2,0.2C141.3,70.5,141.9,70.5,142.5,70.5z M142.5,67.4c-0.3,0-0.7,0-1,0c-0.1,0-0.2,0-0.2,0.2
	c0,0.1,0,0.1,0,0.2c0,0.1,0,0.2,0.2,0.2c0.7,0,1.4,0,2.1,0c0.1,0,0.2,0,0.2-0.2c0-0.1,0-0.1,0-0.2c0-0.1,0-0.2-0.2-0.2
	C143.2,67.4,142.8,67.4,142.5,67.4z M144.2,71.8c0.2,0,0.3-0.1,0.3-0.3c0-0.2-0.1-0.3-0.3-0.3c-0.2,0-0.3,0.1-0.3,0.3
	C143.9,71.7,144.1,71.8,144.2,71.8z M140.8,71.8c0.2,0,0.3-0.1,0.3-0.3c0-0.2-0.1-0.3-0.3-0.3c-0.2,0-0.3,0.1-0.3,0.3
	C140.5,71.7,140.6,71.8,140.8,71.8z"/>
<path class="st8" d="M163.7,59.7c-0.9,0-1.7,0-2.6,0c0,0.1,0,0.1,0,0.2c0,0.3-0.2,0.5-0.5,0.5c-0.2,0-0.5-0.2-0.5-0.4c0,0,0,0,0,0
	c0-0.1,0-0.2-0.1-0.3c-0.1-0.1-0.1-0.2-0.1-0.3c0-0.8,0-1.7,0-2.5c0-0.5,0-1,0-1.5c0-0.3,0.1-0.5,0.4-0.6c0.3-0.1,0.7-0.2,1.1-0.2
	c0.6-0.1,1.3-0.1,1.9,0c0.4,0,0.8,0.1,1.3,0.2c0.3,0.1,0.4,0.3,0.4,0.6c0,1.4,0,2.7,0,4.1c0,0.2-0.1,0.3-0.2,0.4c0,0,0,0.1,0,0.1
	c0,0.1,0,0.2-0.1,0.3c-0.1,0.2-0.3,0.3-0.5,0.3c-0.2,0-0.4-0.2-0.4-0.4C163.7,59.9,163.7,59.8,163.7,59.7z M162.4,57.9
	c0.6,0,1.2,0,1.8,0c0.2,0,0.2,0,0.2-0.2c0-0.6,0-1.2,0-1.8c0-0.2,0-0.2-0.2-0.2c-1.2,0-2.5,0-3.7,0c-0.2,0-0.2,0-0.2,0.2
	c0,0.6,0,1.2,0,1.8c0,0.2,0,0.2,0.2,0.2C161.2,57.9,161.8,57.9,162.4,57.9z M162.4,54.8c-0.3,0-0.7,0-1,0c-0.1,0-0.2,0-0.2,0.2
	c0,0.1,0,0.1,0,0.2c0,0.1,0,0.2,0.2,0.2c0.7,0,1.4,0,2.1,0c0.1,0,0.2,0,0.2-0.2c0-0.1,0-0.1,0-0.2c0-0.1,0-0.2-0.2-0.2
	C163.1,54.8,162.7,54.8,162.4,54.8z M164.1,59.2c0.2,0,0.3-0.1,0.3-0.3c0-0.2-0.1-0.3-0.3-0.3c-0.2,0-0.3,0.1-0.3,0.3
	C163.8,59,163.9,59.2,164.1,59.2z M160.6,59.2c0.2,0,0.3-0.1,0.3-0.3c0-0.2-0.1-0.3-0.3-0.3c-0.2,0-0.3,0.1-0.3,0.3
	C160.4,59,160.5,59.2,160.6,59.2z"/>
</svg>
