<svg id="Layer_1" data-name="Layer 1" xmlns="http://www.w3.org/2000/svg" viewBox="0 0 170 143"><defs><style>.cls-1{fill:#707070;}</style></defs><title>Artboard 1</title><path class="cls-1" d="M69.34,22.88l-8.17,1.17a1,1,0,0,1-.19.6.37.37,0,0,1-.35.16.61.61,0,0,1-.34-.31,1.48,1.48,0,0,1-.18-.75l-.2-4.6a1.15,1.15,0,0,0-1-1.22.21.21,0,0,1-.17-.13.47.47,0,0,1,0-.24.35.35,0,0,1,.07-.23.25.25,0,0,1,.22-.1l1.08,0a9.68,9.68,0,0,1,1.2,0c.21,0,.5-.05.87-.1L63.33,17l1.35-.21L66,16.55l1-.17.5-.09A2.93,2.93,0,0,0,68,16.1l.51-.18A4.12,4.12,0,0,1,69,15.8a2.65,2.65,0,0,1,.64,0c.18,0,.3.07.34.18a.58.58,0,0,1,0,.35,1.05,1.05,0,0,1-.12.38.77.77,0,0,1-.19.25c0,.23-.08.55-.12,1s-.1.85-.15,1.31l-.15,1.37c0,.45-.08.85-.12,1.19a.85.85,0,0,1,.63.13.46.46,0,0,1,.2.36.54.54,0,0,1-.18.39A.9.9,0,0,1,69.34,22.88Zm.51-10.4a3.2,3.2,0,0,1-.2,1.26,1.38,1.38,0,0,1-.45.63.33.33,0,0,1-.45-.07,1.31,1.31,0,0,1-.21-.87V3.17a.87.87,0,0,0-.48-.4l-.8-.35q-.42-.17-.75-.33c-.23-.1-.34-.21-.34-.3s.09-.23.27-.29a2,2,0,0,1,.75-.08,7.09,7.09,0,0,1,.77.05l.79.13a5.16,5.16,0,0,1,.67.15,2,2,0,0,1,.41.16.4.4,0,0,1,.11.47,2.3,2.3,0,0,0-.09.6ZM61.22,23.1l5.24-.73a6.16,6.16,0,0,0,.92-.19l.85-.24.12-4.78-2,.27-2,.29c-.65.09-1.25.19-1.79.28l-1.27.2v3.36C61.25,22.12,61.24,22.63,61.22,23.1ZM64.52,6a17.86,17.86,0,0,1-1.9,3.3,28.88,28.88,0,0,1-2.55,3A32.87,32.87,0,0,1,57.3,14.9c-.94.78-1.82,1.43-2.62,2a.76.76,0,0,1-.45.13.43.43,0,0,1-.31-.13.35.35,0,0,1,0-.32.7.7,0,0,1,.31-.38c.73-.54,1.51-1.17,2.33-1.91s1.64-1.54,2.44-2.41a29.57,29.57,0,0,0,2.26-2.79A21.38,21.38,0,0,0,63.07,6l-.91.14L61,6.35l-1.22.2-1.07.21a2.62,2.62,0,0,0-.77.25,3,3,0,0,1-.83.26,2.86,2.86,0,0,1-1.22-.09,7.82,7.82,0,0,1-1.16-.42c-.22-.1-.3-.24-.24-.41A.46.46,0,0,1,55,6.08L56.25,6l1.34-.11,1.14-.13,1.33-.19,1.15-.18a4.67,4.67,0,0,0,.64-.13,9.2,9.2,0,0,0,1.08-.35,2.88,2.88,0,0,1,1.18-.16.53.53,0,0,1,.29.11.64.64,0,0,1,.22.29.84.84,0,0,1,.06.39A.81.81,0,0,1,64.52,6Z"/><path class="cls-1" d="M91.92,12.75A3.21,3.21,0,0,1,91.71,14a1.38,1.38,0,0,1-.45.63.32.32,0,0,1-.45-.09,1.42,1.42,0,0,1-.2-.88V3.41A1,1,0,0,0,90.12,3l-.8-.36-.75-.33c-.22-.12-.34-.22-.34-.32s.09-.23.27-.29a2,2,0,0,1,.75-.07c.24,0,.5,0,.78.07s.53.07.78.12a6.66,6.66,0,0,1,.67.16,2,2,0,0,1,.41.16.4.4,0,0,1,.11.47,2.24,2.24,0,0,0-.08.59V8.36l.75-.12a2,2,0,0,0,.67-.17c.15-.08.31-.17.49-.25a3.06,3.06,0,0,1,.69-.19,7.2,7.2,0,0,1,1.25,0,.83.83,0,0,1,.56.16.47.47,0,0,1,.19.36.51.51,0,0,1-.18.38,1,1,0,0,1-.55.22l-3.87.55Zm-.12,6.71a4.46,4.46,0,0,1-.3,1.61,4.25,4.25,0,0,1-.86,1.44A5.06,5.06,0,0,1,89.2,23.6a6.36,6.36,0,0,1-2,.61,5.21,5.21,0,0,1-2,0,4,4,0,0,1-1.51-.7,3.24,3.24,0,0,1-1-1.15,3.19,3.19,0,0,1-.34-1.48,3.32,3.32,0,0,1,.36-1.56,4.6,4.6,0,0,1,.93-1.21,5.13,5.13,0,0,1,1.24-.87,7.66,7.66,0,0,1,1.33-.55.34.34,0,0,0,.24-.27.25.25,0,0,0-.09-.21.94.94,0,0,0-.19-.14L86,15.91a.19.19,0,0,1-.1-.16c0-.09.11-.17.33-.21a2.13,2.13,0,0,1,.72,0,1.56,1.56,0,0,1,.7.26.6.6,0,0,1,.29.59,4.65,4.65,0,0,1,2.9,1A2.72,2.72,0,0,1,91.8,19.46Zm-4.42-2.3a.75.75,0,0,0-.2.1l-.21.09a6.1,6.1,0,0,0-2.33,1.25,2.75,2.75,0,0,0-.89,2.12,2.43,2.43,0,0,0,.89,2,3.26,3.26,0,0,0,2.53.46,4.16,4.16,0,0,0,1.46-.44,4,4,0,0,0,1.09-.82,3.4,3.4,0,0,0,.68-1.07,3.14,3.14,0,0,0,.23-1.21A2.2,2.2,0,0,0,89.82,18,3.87,3.87,0,0,0,87.38,17.16ZM83.72,6a3.12,3.12,0,0,1-.39,1.5,17.63,17.63,0,0,1-1.18,2.11l1.26,1a2.93,2.93,0,0,0,.72.46c.26.11.52.24.78.37a4.52,4.52,0,0,1,.75.51,3.86,3.86,0,0,1,.71.84,1.32,1.32,0,0,1,.2.73,1.21,1.21,0,0,1-.16.6.51.51,0,0,1-.39.27.67.67,0,0,1-.53-.29,8.48,8.48,0,0,0-.62-.62c-.31-.3-.66-.63-1.05-1l-1.19-1.08-1.07-1c-.37.54-.78,1.08-1.22,1.65s-.91,1.12-1.38,1.65-1,1.05-1.47,1.55-1,1-1.48,1.36a.77.77,0,0,1-.41.18.44.44,0,0,1-.31-.08.27.27,0,0,1-.1-.28.72.72,0,0,1,.24-.4c.44-.41.9-.87,1.38-1.4s1-1.08,1.44-1.66.94-1.18,1.38-1.78.81-1.19,1.15-1.76a13.31,13.31,0,0,0,.81-1.59,3.83,3.83,0,0,0,.34-1.27,1.3,1.3,0,0,0-.32-.45c-.16-.15-.33-.3-.5-.43s-.34-.27-.48-.4A.42.42,0,0,1,80.45,5c0-.13.15-.22.36-.29a1.5,1.5,0,0,1,.78,0,4.25,4.25,0,0,1,.71.2,4.38,4.38,0,0,1,.69.32,2.58,2.58,0,0,1,.53.37A.55.55,0,0,1,83.72,6Z"/><path class="cls-1" d="M108.57,22.71a3.39,3.39,0,0,1-.2,1.26,1.32,1.32,0,0,1-.45.63.33.33,0,0,1-.45-.08,1.38,1.38,0,0,1-.21-.89v-8c-1.26.18-2.38.35-3.38.51l-2.29.39a4.94,4.94,0,0,0-.73.22A4.09,4.09,0,0,1,100,17a3,3,0,0,1-1.33-.12,11.36,11.36,0,0,1-1.17-.47c-.22-.11-.3-.24-.23-.4a.38.38,0,0,1,.35-.23,13.26,13.26,0,0,0,1.41,0c.47,0,1-.06,1.45-.11l2.21-.23c.81-.09,1.65-.19,2.51-.31l2.61-.38,2.52-.39,2.23-.37,1.74-.33a3.65,3.65,0,0,0,.82-.23c.18-.09.37-.17.55-.24a2.9,2.9,0,0,1,.69-.17,7.29,7.29,0,0,1,1.24,0,.73.73,0,0,1,.56.2.56.56,0,0,1,.19.41.65.65,0,0,1-.18.42.86.86,0,0,1-.54.26c-1.43.17-2.92.37-4.49.58l-4.56.63Zm4.32-16.17a5,5,0,0,1-.29,1.66,4.68,4.68,0,0,1-.9,1.49,5.56,5.56,0,0,1-1.52,1.18,6.1,6.1,0,0,1-2.16.66,5.5,5.5,0,0,1-2.16-.06,4,4,0,0,1-1.59-.74,3.22,3.22,0,0,1-1-1.22A3.45,3.45,0,0,1,103,8a3.29,3.29,0,0,1,.4-1.61,4.69,4.69,0,0,1,1-1.29,6,6,0,0,1,1.33-1,7.58,7.58,0,0,1,1.36-.58.32.32,0,0,0,.24-.27.29.29,0,0,0-.09-.21.94.94,0,0,0-.19-.14l-.21-.12a.19.19,0,0,1-.09-.16c0-.1.11-.17.32-.21a2.4,2.4,0,0,1,.71,0,2,2,0,0,1,.69.24.65.65,0,0,1,.31.59,5.55,5.55,0,0,1,1.77.3,4.16,4.16,0,0,1,1.3.73,3.16,3.16,0,0,1,.8,1A2.69,2.69,0,0,1,112.89,6.54Zm-4.63-2.47-.22.09a1.12,1.12,0,0,1-.22.1,6.14,6.14,0,0,0-2.52,1.42,3,3,0,0,0-.94,2.19,2.9,2.9,0,0,0,.24,1.18,2.35,2.35,0,0,0,.71.91,3.11,3.11,0,0,0,1.15.52,4.22,4.22,0,0,0,1.56,0A4.39,4.39,0,0,0,109.6,10a4.69,4.69,0,0,0,1.17-.91A3.81,3.81,0,0,0,111.48,8a3.4,3.4,0,0,0,.24-1.23,2.28,2.28,0,0,0-.21-.93,2.65,2.65,0,0,0-.66-.85,3.73,3.73,0,0,0-1.08-.62A4.53,4.53,0,0,0,108.26,4.07Z"/><path class="cls-1" d="M72,43.79c-1.44.18-3,.37-4.59.59L62.79,45l-4,.6L56,46.09a5.33,5.33,0,0,0-.73.22,4.25,4.25,0,0,1-.87.22,3,3,0,0,1-1.33-.12A11.45,11.45,0,0,1,51.91,46c-.22-.12-.3-.25-.23-.4a.36.36,0,0,1,.35-.23c.47,0,.94,0,1.41,0s1-.06,1.46-.1L57.08,45c.81-.08,1.64-.19,2.51-.31l2.62-.38,2.53-.38L67,43.51l1.75-.33a3.22,3.22,0,0,0,.81-.23,5.55,5.55,0,0,1,.56-.24,3.15,3.15,0,0,1,.69-.17,8.31,8.31,0,0,1,1.23,0,.77.77,0,0,1,.56.2.56.56,0,0,1,.19.41.63.63,0,0,1-.18.42A.82.82,0,0,1,72,43.79ZM68.28,32.25c0,.35-.1.85-.18,1.5s-.2,1.35-.32,2.11-.25,1.53-.39,2.29S67.11,39.6,67,40.2a2.72,2.72,0,0,1-.39,1,.94.94,0,0,1-.46.38.27.27,0,0,1-.34-.15,1,1,0,0,1,0-.68c.13-.66.26-1.4.39-2.2s.24-1.59.36-2.37.2-1.52.27-2.21.1-1.24.12-1.68l-.79.13-1.24.2-1.48.23-1.5.23-1.31.2c-.4.07-.7.12-.91.17a3,3,0,0,0-.77.26,2.88,2.88,0,0,1-.83.25,2.69,2.69,0,0,1-1.22-.08,7.28,7.28,0,0,1-1.15-.43c-.23-.11-.31-.25-.25-.42a.51.51,0,0,1,.49-.28c.47,0,.9,0,1.28,0s.83-.06,1.34-.11c.21,0,.53-.05.95-.11l1.42-.19L62.55,32l1.53-.23,1.19-.19.58-.11a9.07,9.07,0,0,0,1.08-.36A2.89,2.89,0,0,1,68.11,31a.27.27,0,0,1,.23.14.79.79,0,0,1,.1.35,2,2,0,0,1,0,.42A1.6,1.6,0,0,1,68.28,32.25Z"/><path class="cls-1" d="M92.65,47.59a3.47,3.47,0,0,1-.21,1.27,1.38,1.38,0,0,1-.45.63.34.34,0,0,1-.45-.08,1.27,1.27,0,0,1-.21-.87V29.07a.91.91,0,0,0-.48-.4l-.8-.35c-.27-.11-.53-.23-.75-.34s-.34-.22-.34-.31.09-.23.27-.3A2.2,2.2,0,0,1,90,27.3l.77.07.79.13.67.15a2,2,0,0,1,.41.16.41.41,0,0,1,.11.47,2.26,2.26,0,0,0-.08.6Zm-14.79-7.1a1.12,1.12,0,0,0-1-1.21.23.23,0,0,1-.17-.13.53.53,0,0,1,0-.25.39.39,0,0,1,.07-.23.27.27,0,0,1,.22-.09c.32,0,.68,0,1.08,0a8,8,0,0,1,1.2,0L82.7,38a7.72,7.72,0,0,0,1-.24c.32-.1.67-.19,1-.27L84.91,33q-.36,0-.9.15l-1.12.19c-.4.07-.8.13-1.19.21l-1.06.2a3,3,0,0,0-.77.26,2.88,2.88,0,0,1-.83.25,3.21,3.21,0,0,1-1.22-.09,7.3,7.3,0,0,1-1.15-.42c-.23-.11-.31-.25-.25-.43a.46.46,0,0,1,.49-.27c.47,0,.9,0,1.28,0s.84-.06,1.34-.11a10.28,10.28,0,0,0,1.1-.12l1.38-.2,1.25-.21a5,5,0,0,0,.68-.14,2.93,2.93,0,0,0,.57-.19,5.17,5.17,0,0,1,.51-.18,4.54,4.54,0,0,1,.53-.12,2.72,2.72,0,0,1,.65,0,.38.38,0,0,1,.34.18.67.67,0,0,1,0,.35,1.12,1.12,0,0,1-.12.38.77.77,0,0,1-.19.25,8.43,8.43,0,0,0-.09.87c0,.39-.06.81-.09,1.25s-.08.89-.11,1.32-.07.81-.1,1.12a.78.78,0,0,1,.52.18.42.42,0,0,1,.14.35.62.62,0,0,1-.21.36.86.86,0,0,1-.5.22l-6.67,1v4.82a.32.32,0,0,0,.21.34.67.67,0,0,0,.35,0c.63-.1,1.31-.22,2-.36S83.26,44,84,43.78s1.54-.44,2.31-.69,1.53-.54,2.26-.83a.42.42,0,0,1,.38,0,.35.35,0,0,1,.18.25.56.56,0,0,1-.08.35.57.57,0,0,1-.31.28q-1.09.51-2.31,1c-.81.3-1.61.57-2.41.81s-1.58.46-2.35.63-1.48.32-2.12.42a1.82,1.82,0,0,1-1.23-.22,1.06,1.06,0,0,1-.49-1Z"/><path class="cls-1" d="M106.42,45V40a.69.69,0,0,0-.33-.3l-.47-.2a1.92,1.92,0,0,1-.43-.18.27.27,0,0,1-.18-.24q0-.2.27-.27a4.18,4.18,0,0,1,.75-.12,5.11,5.11,0,0,1,.92.06,1.8,1.8,0,0,1,.75.26c.13.08.17.23.11.46a2.28,2.28,0,0,0-.09.58v4.7l1.93-.29c.64-.09,1.24-.19,1.81-.29l1.57-.28c.49-.09.91-.17,1.26-.25a3.65,3.65,0,0,0,.82-.23c.18-.09.37-.17.55-.24a3.43,3.43,0,0,1,.69-.18,7.52,7.52,0,0,1,1.24,0,.76.76,0,0,1,.56.19.58.58,0,0,1,.19.42.65.65,0,0,1-.18.42.81.81,0,0,1-.54.25l-4.59.6c-1.61.21-3.17.43-4.66.65l-4.05.61c-1.21.18-2.11.33-2.73.45a6.38,6.38,0,0,0-.73.21A4.09,4.09,0,0,1,100,47a2.73,2.73,0,0,1-1.33-.12,9.53,9.53,0,0,1-1.17-.46c-.22-.11-.3-.24-.23-.4a.38.38,0,0,1,.35-.23c.47,0,.94,0,1.41,0s1-.06,1.45-.11l2.78-.3C104.28,45.26,105.33,45.11,106.42,45ZM113.86,32c0,.54-.11,1.14-.18,1.79s-.16,1.3-.26,2-.2,1.29-.31,1.89-.22,1.13-.32,1.57a2.58,2.58,0,0,1-.39.95.85.85,0,0,1-.46.38.3.3,0,0,1-.34-.16,1,1,0,0,1,0-.67c.1-.51.2-1.1.3-1.76s.2-1.35.28-2.05.15-1.4.21-2.08.09-1.28.11-1.81l-.79.13-1.24.19-1.48.23-1.5.23-1.31.21c-.4.06-.7.12-.91.17a3,3,0,0,0-.77.25,2.64,2.64,0,0,1-.83.26,2.7,2.7,0,0,1-1.22-.09,7,7,0,0,1-1.15-.42c-.23-.11-.31-.25-.25-.43a.5.5,0,0,1,.49-.27c.47,0,.89,0,1.28,0s.84-.06,1.34-.11c.21,0,.53,0,1-.11l1.42-.19,1.61-.23,1.54-.23,1.19-.2.58-.1a11.33,11.33,0,0,0,1.08-.36,3.06,3.06,0,0,1,1.18-.16.26.26,0,0,1,.23.15.76.76,0,0,1,.1.35,1.39,1.39,0,0,1,0,.41A1.52,1.52,0,0,1,113.86,32Z"/><path class="cls-1" d="M69.34,75.73,61.17,76.9a1,1,0,0,1-.19.6.35.35,0,0,1-.35.16c-.12,0-.23-.13-.34-.3a1.53,1.53,0,0,1-.18-.75L59.91,72a1.14,1.14,0,0,0-1-1.21.22.22,0,0,1-.17-.14.47.47,0,0,1,0-.24.37.37,0,0,1,.07-.23.27.27,0,0,1,.22-.1c.32,0,.68,0,1.08,0a9.68,9.68,0,0,1,1.2,0q.31,0,.87-.09l1.21-.17,1.35-.21,1.27-.2,1-.17.5-.1A3.83,3.83,0,0,0,68,69a3.52,3.52,0,0,1,.51-.19l.53-.12a2.65,2.65,0,0,1,.64,0c.18,0,.3.08.34.18a.59.59,0,0,1,0,.35,1.05,1.05,0,0,1-.12.38.67.67,0,0,1-.19.25c0,.23-.08.55-.12,1s-.1.85-.15,1.31l-.15,1.37c0,.45-.08.85-.12,1.19a.9.9,0,0,1,.63.13.48.48,0,0,1,.2.37.54.54,0,0,1-.18.38A.9.9,0,0,1,69.34,75.73Zm.51-10.4a3.2,3.2,0,0,1-.2,1.26,1.27,1.27,0,0,1-.45.63.32.32,0,0,1-.45-.07,1.29,1.29,0,0,1-.21-.87V56a.91.91,0,0,0-.48-.4l-.8-.35q-.42-.17-.75-.33c-.23-.1-.34-.2-.34-.3s.09-.23.27-.29a1.81,1.81,0,0,1,.75-.07,7,7,0,0,1,.77,0l.79.13.67.15a2,2,0,0,1,.41.16.41.41,0,0,1,.11.47,2.3,2.3,0,0,0-.09.6ZM61.22,76l5.24-.73a5.12,5.12,0,0,0,.92-.19l.85-.24L68.35,70l-2,.27-2,.29-1.79.28-1.27.2v3.36C61.25,75,61.24,75.48,61.22,76Zm3.3-17.11a18.12,18.12,0,0,1-1.9,3.29,29,29,0,0,1-2.55,3.05,36.55,36.55,0,0,1-2.77,2.58c-.94.77-1.82,1.43-2.62,2a.76.76,0,0,1-.45.13.39.39,0,0,1-.31-.13.33.33,0,0,1,0-.31.71.71,0,0,1,.31-.39,28.67,28.67,0,0,0,2.33-1.91A32.47,32.47,0,0,0,59,64.7a29.57,29.57,0,0,0,2.26-2.79,21.38,21.38,0,0,0,1.85-3c-.25,0-.55.08-.91.15L61,59.2c-.41.06-.82.13-1.22.21l-1.07.2a2.68,2.68,0,0,0-.77.26,3,3,0,0,1-.83.25A2.85,2.85,0,0,1,55.88,60a9.12,9.12,0,0,1-1.16-.43c-.22-.1-.3-.23-.24-.41a.46.46,0,0,1,.49-.27c.47,0,.9,0,1.28-.06s.84-.06,1.34-.11l1.14-.13,1.33-.18,1.15-.19a4.67,4.67,0,0,0,.64-.13,9.2,9.2,0,0,0,1.08-.35,3.06,3.06,0,0,1,1.18-.16.53.53,0,0,1,.29.11.7.7,0,0,1,.22.29.84.84,0,0,1,.06.39A.88.88,0,0,1,64.52,58.84Z"/><path class="cls-1" d="M92.65,74.5a3.45,3.45,0,0,1-.21,1.26,1.38,1.38,0,0,1-.45.63.32.32,0,0,1-.45-.09,1.34,1.34,0,0,1-.21-.88V63.17l-.74.18-.88.19-.79.16-.49.08a3.88,3.88,0,0,1-1,0,3.22,3.22,0,0,1-.78-.18c-.23-.08-.32-.21-.28-.4s.19-.28.43-.28a8.16,8.16,0,0,0,.83-.06c.37,0,.65-.07.86-.11l.43-.08.76-.13.89-.16.78-.14V56a1,1,0,0,0-.48-.38l-.8-.35a7.59,7.59,0,0,1-.75-.34c-.23-.11-.34-.21-.34-.31s.09-.23.27-.29A1.94,1.94,0,0,1,90,54.2c.24,0,.5,0,.77.08s.54.07.79.12a6.66,6.66,0,0,1,.67.16,2.17,2.17,0,0,1,.41.15c.13.08.17.24.11.46a2.38,2.38,0,0,0-.08.61ZM84.45,60a6.12,6.12,0,0,1-.52,2.1A22.62,22.62,0,0,1,82.53,65l1.85,1.31a3.54,3.54,0,0,0,.75.43c.26.12.51.24.76.38a4.34,4.34,0,0,1,.74.52,3.94,3.94,0,0,1,.71.85,1.32,1.32,0,0,1,.2.73,1.21,1.21,0,0,1-.16.6.52.52,0,0,1-.4.28c-.17,0-.34-.07-.52-.3l-.71-.67L84.52,68l-1.37-1.19c-.46-.39-.84-.73-1.15-1a33.74,33.74,0,0,1-2.42,3.4,21.45,21.45,0,0,1-2.84,2.93.81.81,0,0,1-.41.18.4.4,0,0,1-.31-.09.32.32,0,0,1-.09-.28.62.62,0,0,1,.23-.4,27.37,27.37,0,0,0,2.39-2.68,26.82,26.82,0,0,0,2-2.94,19.87,19.87,0,0,0,1.46-2.86,7.88,7.88,0,0,0,.61-2.45,1.14,1.14,0,0,0-.32-.45c-.16-.15-.33-.3-.51-.44a4.9,4.9,0,0,1-.47-.4q-.21-.2-.18-.33t.36-.3a1.7,1.7,0,0,1,.78,0,6.27,6.27,0,0,1,.71.22,5.52,5.52,0,0,1,.69.32,2.15,2.15,0,0,1,.52.36A.55.55,0,0,1,84.45,60Z"/><path class="cls-1" d="M116.48,75.42l-9.14,1.28a1.92,1.92,0,0,1-1.31-.19,1,1,0,0,1-.54-1V72.39a.55.55,0,0,0-.4-.31l-.61-.13c-.21,0-.4-.07-.57-.11s-.26-.11-.26-.2a.38.38,0,0,1,.19-.32,2,2,0,0,1,.68-.19l.52-.06c.22,0,.45,0,.68,0a4.6,4.6,0,0,1,.65,0,1.05,1.05,0,0,1,.41.1.35.35,0,0,1,.11.42,1.81,1.81,0,0,0-.09.55v3.32a.32.32,0,0,0,.21.34.78.78,0,0,0,.35,0l5.8-.85a3.13,3.13,0,0,0,.89-.21l.55-.24a3.36,3.36,0,0,1,.64-.18,5.8,5.8,0,0,1,1.21,0,.83.83,0,0,1,.56.16.44.44,0,0,1,.19.36.54.54,0,0,1-.18.39A.9.9,0,0,1,116.48,75.42Zm-1-6.55a3.2,3.2,0,0,1-.2,1.26,1.27,1.27,0,0,1-.45.63.32.32,0,0,1-.45-.07,1.29,1.29,0,0,1-.21-.87V64.48l-.58.15-.63.15-.57.12-.4.07a3.81,3.81,0,0,1-1,0,3.63,3.63,0,0,1-.78-.16c-.23-.08-.32-.21-.28-.41s.18-.29.42-.29a8.13,8.13,0,0,0,.84-.06L112,64a1.43,1.43,0,0,0,.34-.05l.56-.11.64-.12.59-.11v-3.2l-.58.15-.63.14-.57.12-.4.08a4.28,4.28,0,0,1-1,0,3.63,3.63,0,0,1-.78-.16c-.23-.08-.32-.22-.28-.41s.18-.29.42-.29a8.13,8.13,0,0,0,.84-.06l.86-.11a2.28,2.28,0,0,0,.34,0l.56-.11.64-.12.59-.11V56.17a.87.87,0,0,0-.48-.4c-.26-.12-.52-.24-.8-.35l-.75-.33c-.23-.1-.34-.21-.34-.3s.09-.23.26-.29a2,2,0,0,1,.76-.08,7.09,7.09,0,0,1,.77,0c.28,0,.54.07.79.12s.47.1.67.16a2,2,0,0,1,.41.16.4.4,0,0,1,.11.47,2.29,2.29,0,0,0-.09.59Zm-5.81-6.3a6,6,0,0,1-.27,1.79A4.71,4.71,0,0,1,108.5,66,4.93,4.93,0,0,1,107,67.16a6.1,6.1,0,0,1-2.16.67,5.72,5.72,0,0,1-2.13-.06,3.82,3.82,0,0,1-1.55-.76,3.43,3.43,0,0,1-1-1.31,4.51,4.51,0,0,1-.31-1.7,3.84,3.84,0,0,1,.35-1.71,4.63,4.63,0,0,1,.92-1.31,5.84,5.84,0,0,1,1.26-1,12.39,12.39,0,0,1,1.39-.65c.2-.07.3-.17.3-.32a.41.41,0,0,0-.11-.28,1.64,1.64,0,0,0-.25-.19,2.5,2.5,0,0,1-.24-.16.21.21,0,0,1-.11-.17c0-.09.12-.16.34-.2a2.11,2.11,0,0,1,.75,0,1.78,1.78,0,0,1,.76.33.78.78,0,0,1,.31.71,6,6,0,0,1,1.65.36,4.16,4.16,0,0,1,1.27.76,3.36,3.36,0,0,1,.82,1.06A3,3,0,0,1,109.62,62.57Zm-4.56-2.69a2.33,2.33,0,0,1-.39.19,6.15,6.15,0,0,0-1.33.58,4.68,4.68,0,0,0-1.06.84,3.41,3.41,0,0,0-.7,1.08,3.33,3.33,0,0,0-.26,1.31,4,4,0,0,0,.22,1.32,2.45,2.45,0,0,0,.67,1,2.55,2.55,0,0,0,1.11.57,3.9,3.9,0,0,0,1.54,0,4.26,4.26,0,0,0,1.58-.51,4.17,4.17,0,0,0,1.13-.93,3.58,3.58,0,0,0,.66-1.21,4.27,4.27,0,0,0,.22-1.37,2.44,2.44,0,0,0-.24-1,2.78,2.78,0,0,0-.68-.89,3.42,3.42,0,0,0-1.07-.64A5,5,0,0,0,105.06,59.88Z"/><path class="cls-1" d="M25.38,110.63a24.22,24.22,0,0,1-2.65,4.6,40.56,40.56,0,0,1-3.55,4.25,47.58,47.58,0,0,1-3.88,3.6,40.3,40.3,0,0,1-3.65,2.74A1.09,1.09,0,0,1,11,126a.52.52,0,0,1-.42-.19.5.5,0,0,1-.07-.44,1.11,1.11,0,0,1,.44-.54c1-.74,2.1-1.63,3.25-2.65s2.28-2.15,3.4-3.37a41.53,41.53,0,0,0,3.16-3.89,29,29,0,0,0,2.57-4.27l-1.26.21-1.63.29-1.71.3c-.56.1-1.06.19-1.49.25a6.16,6.16,0,0,0-1.08.38,4.24,4.24,0,0,1-1.15.34,4,4,0,0,1-1.71-.12,9.9,9.9,0,0,1-1.6-.6c-.32-.13-.43-.32-.34-.57s.31-.37.68-.37c.65,0,1.25,0,1.79,0l1.86-.15,1.59-.21,1.86-.27,1.61-.25a6.47,6.47,0,0,0,.89-.19,13.49,13.49,0,0,0,1.51-.49,4.09,4.09,0,0,1,1.64-.22.72.72,0,0,1,.41.15,1,1,0,0,1,.3.41,1.1,1.1,0,0,1,.08.54A1.13,1.13,0,0,1,25.38,110.63Zm8.73,24L21.7,136.38a2.67,2.67,0,0,1-1.83-.29,1.5,1.5,0,0,1-.74-1.37v-2.23a1.59,1.59,0,0,0-1.42-1.69.32.32,0,0,1-.24-.19.71.71,0,0,1-.07-.32.5.5,0,0,1,.1-.31.36.36,0,0,1,.31-.13c.45,0,1,0,1.5-.07a9.43,9.43,0,0,1,1.68,0l6.76-1a7.5,7.5,0,0,0,1.36-.29c.38-.12.8-.24,1.25-.35l.13-3.69c-.34.07-.83.15-1.49.25l-2.09.34-2.19.37-1.7.29a5.85,5.85,0,0,0-1.09.37,4.1,4.1,0,0,1-2.86.22,9.91,9.91,0,0,1-1.6-.59c-.32-.13-.43-.32-.34-.57s.31-.37.68-.37c.65,0,1.25,0,1.79-.07l1.86-.14c.38,0,1-.12,1.78-.24l2.45-.35c.83-.13,1.59-.24,2.27-.36l1.18-.2a4.9,4.9,0,0,0,.79-.25c.24-.11.48-.19.71-.27a3.72,3.72,0,0,1,.75-.17,4.37,4.37,0,0,1,.9,0,.53.53,0,0,1,.47.24.8.8,0,0,1,.07.47,1.73,1.73,0,0,1-.17.53,1.18,1.18,0,0,1-.27.35c-.07.52-.16,1.12-.26,1.81s-.18,1.3-.25,1.84a1.17,1.17,0,0,1,.71.29.59.59,0,0,1,.17.49.84.84,0,0,1-.29.51,1.22,1.22,0,0,1-.69.3L21,131.07v3.48a.42.42,0,0,0,.31.46,1.37,1.37,0,0,0,.51.05L29.48,134a4.4,4.4,0,0,0,1.25-.28l.76-.34a4.1,4.1,0,0,1,.9-.25,8.65,8.65,0,0,1,1.69-.07,1.19,1.19,0,0,1,.78.22.62.62,0,0,1,.27.5.77.77,0,0,1-.26.55A1.3,1.3,0,0,1,34.11,134.62ZM31,117.8,30,118l-1.22.26-1.1.22-.69.13a5.65,5.65,0,0,1-1.42,0,4.07,4.07,0,0,1-1.08-.26.54.54,0,0,1-.34-.23.47.47,0,0,1-.07-.34.5.5,0,0,1,.19-.29.66.66,0,0,1,.42-.12c.27,0,.66,0,1.17-.07s.91-.08,1.2-.13l.59-.12,1.07-.19,1.23-.21c.42-.08.78-.15,1.1-.19v-3.79l-.88.22-1,.22-.89.19-.61.11a5.22,5.22,0,0,1-1.42,0,4.09,4.09,0,0,1-1.09-.25c-.31-.12-.44-.3-.39-.56s.26-.39.6-.39.66,0,1.16-.08.91-.11,1.2-.16l.53-.1.88-.15,1-.18.91-.18v-4.73a1.41,1.41,0,0,0-.68-.53c-.36-.17-.73-.33-1.11-.49a10.54,10.54,0,0,1-1.05-.47c-.32-.16-.48-.3-.48-.44s.13-.32.38-.41a2.81,2.81,0,0,1,1.05-.1l1.08.1,1.1.16a6.52,6.52,0,0,1,.93.2,1.72,1.72,0,0,1,.57.25q.27.18.15.63a3.72,3.72,0,0,0-.11.83v12.25a4.53,4.53,0,0,1-.29,1.75,1.73,1.73,0,0,1-.63.88.45.45,0,0,1-.62-.1A1.85,1.85,0,0,1,31,120Z"/><path class="cls-1" d="M51.87,124.13v-3.25a5.92,5.92,0,0,1-3.94-1,3.46,3.46,0,0,1-1.4-2.87,4,4,0,0,1,.49-2,6.68,6.68,0,0,1,1.23-1.61,7.43,7.43,0,0,1,1.63-1.18,7.94,7.94,0,0,1,1.69-.71.46.46,0,0,0,.34-.38.47.47,0,0,0-.24-.37l-2,.32-1.64.29a7,7,0,0,0-1,.32,4.13,4.13,0,0,1-1.21.29,4.29,4.29,0,0,1-1.53-.07,6,6,0,0,1-1.45-.44c-.32-.16-.43-.34-.33-.56a.53.53,0,0,1,.5-.32c.38,0,.88,0,1.5,0s1.28-.1,2-.18c.45-.05,1-.12,1.71-.22l2.2-.33,2.35-.35,2.17-.35,1.67-.3.9-.15a4.48,4.48,0,0,0,.79-.33,3.12,3.12,0,0,1,.64-.29,5.24,5.24,0,0,1,.92-.19,15,15,0,0,1,1.57-.07,1.25,1.25,0,0,1,.78.22.65.65,0,0,1,.27.5.77.77,0,0,1-.25.52,1.27,1.27,0,0,1-.77.32c-.24.05-.63.1-1.15.17l-1.81.25-2.26.33c-.83.11-1.66.23-2.49.37a.81.81,0,0,1,.24.67,6.41,6.41,0,0,1,3.75,1.32,3.45,3.45,0,0,1,1.36,2.68,5,5,0,0,1-1.32,3.41,7.26,7.26,0,0,1-4,2.07v3.21c1.62-.25,3.14-.49,4.53-.73s2.55-.44,3.46-.62a5,5,0,0,0,1.13-.32c.26-.13.52-.24.78-.34a4.62,4.62,0,0,1,1-.24,11.87,11.87,0,0,1,1.72,0,1.06,1.06,0,0,1,.78.27.8.8,0,0,1,.27.57.88.88,0,0,1-.25.6,1.16,1.16,0,0,1-.76.35q-3,.38-6.39.83l-6.52.91-5.65.85c-1.68.26-2.95.47-3.8.63a6.74,6.74,0,0,0-1,.3,5.94,5.94,0,0,1-1.21.31,4.09,4.09,0,0,1-1.87-.17,12.68,12.68,0,0,1-1.62-.65c-.32-.15-.42-.34-.32-.55a.5.5,0,0,1,.49-.33c.65,0,1.31,0,2,0s1.33-.09,2-.16c1.29-.11,2.76-.27,4.42-.49S50.16,124.38,51.87,124.13ZM61,134l-13.09,1.86a2.61,2.61,0,0,1-1.83-.29,1.49,1.49,0,0,1-.75-1.37v-3.38a.82.82,0,0,0-.55-.39,6.39,6.39,0,0,0-.87-.18c-.29,0-.55-.1-.79-.16s-.36-.15-.36-.28a.52.52,0,0,1,.28-.45,2.67,2.67,0,0,1,.94-.27l.73-.08c.3,0,.62-.06,1-.07a8.48,8.48,0,0,1,.89,0,1.6,1.6,0,0,1,.58.13.46.46,0,0,1,.15.58,2.74,2.74,0,0,0-.12.78v3.62a.45.45,0,0,0,.29.47.71.71,0,0,0,.49,0l8.42-1.22a4.48,4.48,0,0,0,1.26-.28l.76-.34a3.85,3.85,0,0,1,.89-.25,8.77,8.77,0,0,1,1.7-.07,1.18,1.18,0,0,1,.77.22.63.63,0,0,1,.27.51.75.75,0,0,1-.25.54A1.3,1.3,0,0,1,61,134Zm-4.67-27.34-5.14.72a6,6,0,0,1-1.53-.09,5.72,5.72,0,0,1-1.45-.42.5.5,0,0,1-.3-.26.29.29,0,0,1,0-.27.6.6,0,0,1,.18-.22.57.57,0,0,1,.31-.1h.69l.8,0,.76,0a5.5,5.5,0,0,0,.56,0c.25,0,.61-.07,1.08-.14l1.51-.18,1.48-.15a10.4,10.4,0,0,1,1-.07,1.4,1.4,0,0,1,.77.17.52.52,0,0,1,.29.39.58.58,0,0,1-.23.44A1.56,1.56,0,0,1,56.34,106.67Zm-3.11,5.59a5.77,5.77,0,0,1-.58.27,7.81,7.81,0,0,0-3,1.64,3.47,3.47,0,0,0-1.17,2.69,2.26,2.26,0,0,0,.36,1.28,2.41,2.41,0,0,0,.94.85,4.16,4.16,0,0,0,1.41.4,6.24,6.24,0,0,0,1.72,0,7.46,7.46,0,0,0,1.76-.47A5.52,5.52,0,0,0,56.1,118a4,4,0,0,0,1-1.15,3,3,0,0,0,.35-1.42,2.76,2.76,0,0,0-1.11-2.13A5.23,5.23,0,0,0,53.23,112.26Z"/><path class="cls-1" d="M84.25,111.85c-.41,0-.94.11-1.61.2l-2.22.33-2.55.4-2.62.46a5.37,5.37,0,0,0-1,.32,5,5,0,0,1-2.74.22,6.1,6.1,0,0,1-1.45-.44c-.32-.16-.42-.34-.32-.56a.51.51,0,0,1,.49-.32c.38,0,.88,0,1.5,0s1.28-.1,2-.19,1.37-.18,2.08-.29l2-.3c.61-.1,1.14-.2,1.59-.29s.77-.15,1-.2a5.72,5.72,0,0,0,.8-.32,4.25,4.25,0,0,1,.64-.27,4.83,4.83,0,0,1,.91-.2,10.5,10.5,0,0,1,1.57-.09,1.19,1.19,0,0,1,.78.22.63.63,0,0,1,.27.51.75.75,0,0,1-.25.54A1.24,1.24,0,0,1,84.25,111.85Zm-.34,7a5.47,5.47,0,0,1-.42,2.1,6.35,6.35,0,0,1-1.2,1.84,6.61,6.61,0,0,1-1.88,1.39,7.63,7.63,0,0,1-2.45.76,6.94,6.94,0,0,1-2.42-.08,5.71,5.71,0,0,1-2-.83,4.28,4.28,0,0,1-1.34-1.44,3.77,3.77,0,0,1-.49-1.91,4.61,4.61,0,0,1,.47-2.08A6.17,6.17,0,0,1,73.41,117a7.88,7.88,0,0,1,1.57-1.2A7.61,7.61,0,0,1,76.6,115a.44.44,0,0,0,.34-.37.38.38,0,0,0-.12-.29,1.35,1.35,0,0,0-.27-.2l-.29-.17a.25.25,0,0,1-.13-.22c0-.14.15-.23.46-.29a3.59,3.59,0,0,1,1,0,2.36,2.36,0,0,1,1,.36.86.86,0,0,1,.41.83,7.87,7.87,0,0,1,2.12.45,4.87,4.87,0,0,1,1.55.94,3.85,3.85,0,0,1,1,1.28A3.7,3.7,0,0,1,83.91,118.85Zm-5.65-3.11a1.83,1.83,0,0,1-.58.27,6.81,6.81,0,0,0-2.9,1.68,3.81,3.81,0,0,0-1.09,2.82,2.76,2.76,0,0,0,1.19,2.5,4.34,4.34,0,0,0,3.08.51,5.92,5.92,0,0,0,1.75-.52A4.54,4.54,0,0,0,82,120.7a3.71,3.71,0,0,0,.33-1.54,3.13,3.13,0,0,0-1-2.28A4.49,4.49,0,0,0,78.26,115.74Zm2.44-7.31-3.62.55a5,5,0,0,1-1.53-.13,6.56,6.56,0,0,1-1.45-.45c-.32-.16-.42-.35-.32-.56a.51.51,0,0,1,.49-.32h1.49c.27,0,.52,0,.76,0s.42,0,.56,0a14.45,14.45,0,0,1,1.67-.2l1.91-.14a.86.86,0,0,1,.66.16.52.52,0,0,1,.22.42.66.66,0,0,1-.22.47A.88.88,0,0,1,80.7,108.43Zm.1,27.95a2.53,2.53,0,0,1-.48.86.68.68,0,0,1-.52.27.57.57,0,0,1-.44-.35,2.34,2.34,0,0,1-.19-1v-7.68a1,1,0,0,0-.54-.49,8.51,8.51,0,0,0-.83-.34,7.91,7.91,0,0,1-.76-.32c-.22-.11-.34-.24-.34-.38s.13-.31.38-.42a3.22,3.22,0,0,1,1-.18,15.89,15.89,0,0,1,1.64.08,2.73,2.73,0,0,1,1.2.32.6.6,0,0,1,.15.68,3.37,3.37,0,0,0-.12.81V130l9.88-1.56v-2.7a1.18,1.18,0,0,0-.54-.48c-.28-.13-.55-.25-.83-.35a6.91,6.91,0,0,1-.76-.33c-.23-.11-.34-.23-.34-.37s.12-.32.37-.42a2.92,2.92,0,0,1,1-.15,9.24,9.24,0,0,1,1.64.07,2.81,2.81,0,0,1,1.2.33c.18.12.24.34.15.66a3.57,3.57,0,0,0-.11.83v7.28a4.69,4.69,0,0,1-.24,1.62,2.29,2.29,0,0,1-.54.91.53.53,0,0,1-.6.14c-.19-.09-.32-.34-.38-.75Zm.2-1.59v.13l9.88-1.56v-3.48L81,131.44Zm11.71-15.5a4.58,4.58,0,0,1-.29,1.76,1.84,1.84,0,0,1-.63.88.44.44,0,0,1-.62-.12,1.84,1.84,0,0,1-.29-1.23V107a1.41,1.41,0,0,0-.68-.53c-.36-.17-.73-.33-1.11-.49s-.74-.32-1-.47-.48-.31-.48-.44.13-.32.38-.41a2.83,2.83,0,0,1,1-.1c.33,0,.69.06,1.07.1s.75.1,1.11.17.66.14.93.22a2.5,2.5,0,0,1,.57.22c.18.11.24.33.15.64a3.48,3.48,0,0,0-.11.85v7.48l1.05-.17a3,3,0,0,0,.92-.28,6.42,6.42,0,0,1,.7-.31,4.87,4.87,0,0,1,1-.28,8.51,8.51,0,0,1,1.74-.08,1.17,1.17,0,0,1,.78.22.66.66,0,0,1,.27.51.75.75,0,0,1-.25.54,1.37,1.37,0,0,1-.76.32l-5.41.78Z"/><path class="cls-1" d="M101.33,113.3a.49.49,0,0,1,.27-.43,2.47,2.47,0,0,1,1-.27c.18,0,.44,0,.78-.07s.69,0,1,0,.69,0,1,.05a2,2,0,0,1,.62.15.5.5,0,0,1,.15.6,2.54,2.54,0,0,0-.11.76v10.12a.44.44,0,0,0,.28.47,1,1,0,0,0,.49.07,40.76,40.76,0,0,0,5.82-1.31,63.33,63.33,0,0,0,6.23-2.21.7.7,0,0,1,.54,0,.48.48,0,0,1,.24.34.89.89,0,0,1-.11.51.79.79,0,0,1-.44.4c-1,.5-2.09,1-3.18,1.41s-2.16.84-3.24,1.22-2.14.69-3.17,1a28.38,28.38,0,0,1-2.89.61,2.4,2.4,0,0,1-1.71-.32,1.53,1.53,0,0,1-.69-1.37V114.42a.89.89,0,0,0-.61-.4,6.33,6.33,0,0,0-1-.22c-.34-.06-.64-.12-.9-.19S101.33,113.44,101.33,113.3Zm22.84,19.09a4.53,4.53,0,0,1-.29,1.75,1.84,1.84,0,0,1-.62.88.45.45,0,0,1-.63-.11,2,2,0,0,1-.29-1.24V106.51a1.36,1.36,0,0,0-.68-.53c-.36-.17-.73-.33-1.11-.49s-.73-.32-1-.47-.47-.31-.47-.44.12-.32.37-.41a2.86,2.86,0,0,1,1-.1c.34,0,.7.06,1.08.1s.75.1,1.1.17.66.14.93.22a2.5,2.5,0,0,1,.57.22c.18.11.23.33.16.64a3.53,3.53,0,0,0-.12.85Z"/><path class="cls-1" d="M135.13,114.29v11.09c0,.25.09.41.28.47a.74.74,0,0,0,.5,0c.88-.11,1.83-.28,2.86-.51s2.06-.49,3.12-.79,2.14-.65,3.23-1,2.15-.79,3.17-1.22a.61.61,0,0,1,.54,0,.5.5,0,0,1,.24.34.85.85,0,0,1-.11.49.9.9,0,0,1-.43.41c-1,.49-2.13,1-3.25,1.42s-2.25.86-3.37,1.23-2.21.69-3.26,1-2.05.47-3,.61a2.36,2.36,0,0,1-1.71-.29,1.54,1.54,0,0,1-.69-1.37V115.64a1.26,1.26,0,0,0-.51-1.08,3.17,3.17,0,0,0-1.22-.54q-.33-.08-.3-.48a.46.46,0,0,1,.41-.47,12.22,12.22,0,0,1,1.66-.12c.65,0,1.26,0,1.82,0l4.33-.61a6.17,6.17,0,0,0,1.25-.3c.28-.11.53-.23.76-.34a4,4,0,0,1,.9-.27,8.65,8.65,0,0,1,1.69-.07,1.39,1.39,0,0,1,.78.25.66.66,0,0,1,.27.51.68.68,0,0,1-.25.52,1.3,1.3,0,0,1-.76.31Zm18.47,18.57a4.58,4.58,0,0,1-.29,1.76,1.83,1.83,0,0,1-.63.88.46.46,0,0,1-.62-.1,1.87,1.87,0,0,1-.29-1.22V107a1.3,1.3,0,0,0-.67-.56L150,106c-.39-.15-.73-.31-1-.47s-.47-.31-.47-.44.12-.31.37-.41a3.1,3.1,0,0,1,1-.1l1.08.1c.39,0,.75.11,1.1.17s.66.15.93.22a2.85,2.85,0,0,1,.58.22.58.58,0,0,1,.15.66,3.32,3.32,0,0,0-.12.83v11.2l1.05-.14a2.88,2.88,0,0,0,.93-.27l.69-.33a3.77,3.77,0,0,1,1-.28,10.59,10.59,0,0,1,1.74-.06,1.19,1.19,0,0,1,.78.22.65.65,0,0,1,.27.5.71.71,0,0,1-.26.53,1.3,1.3,0,0,1-.76.3l-5.41.78Z"/></svg>