<svg id="Layer_1" data-name="Layer 1" xmlns="http://www.w3.org/2000/svg" viewBox="0 0 215 18"><defs><style>.cls-1{fill:#707070;}</style></defs><title>Artboard 1</title><path class="cls-1" d="M137.29,15.65a.73.73,0,0,1-.36,0,.71.71,0,0,1-.32-.14.83.83,0,0,1-.21-.28.62.62,0,0,1-.08-.35,1,1,0,0,1,.23-.69,1,1,0,0,1,.65-.32.72.72,0,0,1,.75.26,1.54,1.54,0,0,1,.24.91,3,3,0,0,1-.09.73,3.73,3.73,0,0,1-.26.73,3.15,3.15,0,0,1-.45.65,2.29,2.29,0,0,1-.64.52.18.18,0,0,1-.12,0,.09.09,0,0,1-.12,0h0v-.12l.07-.09a1.76,1.76,0,0,0,.4-.37,2.34,2.34,0,0,0,.3-.47,3,3,0,0,0,.2-.49,1.54,1.54,0,0,0,.06-.43C137.55,15.61,137.46,15.58,137.29,15.65Z"/><path class="cls-1" d="M11.34,15.29,6.09,16a.64.64,0,0,1-.12.39c-.08.08-.15.12-.23.1a.37.37,0,0,1-.22-.2,1.13,1.13,0,0,1-.11-.48l-.13-3a.74.74,0,0,0-.65-.78A.15.15,0,0,1,4.52,12a.41.41,0,0,1,0-.16.24.24,0,0,1,0-.15.18.18,0,0,1,.14-.06c.21,0,.44,0,.7,0a6.66,6.66,0,0,1,.77,0l.56-.06.78-.11.86-.13.82-.14.63-.1.32-.07a2.74,2.74,0,0,0,.37-.11,2.19,2.19,0,0,1,.33-.12l.34-.08a1.83,1.83,0,0,1,.41,0c.12,0,.19,0,.22.11a.45.45,0,0,1,0,.23.75.75,0,0,1-.08.24.44.44,0,0,1-.12.16c0,.15,0,.35-.08.62s-.06.54-.09.84-.06.59-.1.88-.05.55-.07.76a.57.57,0,0,1,.4.09.32.32,0,0,1,.13.23.33.33,0,0,1-.12.25A.57.57,0,0,1,11.34,15.29Zm.33-6.68a2.08,2.08,0,0,1-.13.81.9.9,0,0,1-.29.4A.21.21,0,0,1,11,9.77a.83.83,0,0,1-.13-.56V2.62a.59.59,0,0,0-.31-.25L10,2.14l-.48-.21c-.14-.07-.22-.13-.22-.2s.06-.14.17-.18A1.36,1.36,0,0,1,10,1.5l.5,0,.5.08.43.1.27.1a.29.29,0,0,1,.07.31,1.36,1.36,0,0,0-.06.38ZM6.12,15.43,9.49,15a3.58,3.58,0,0,0,.59-.12l.55-.16.08-3.07-1.29.17L8.11,12,7,12.15l-.82.13v2.16C6.14,14.8,6.14,15.13,6.12,15.43Zm2.12-11A11.44,11.44,0,0,1,7,6.55a17.2,17.2,0,0,1-1.64,2A20.84,20.84,0,0,1,3.6,10.16a20.65,20.65,0,0,1-1.68,1.27.49.49,0,0,1-.29.08.26.26,0,0,1-.2-.08.24.24,0,0,1,0-.21A.45.45,0,0,1,1.61,11c.46-.35,1-.75,1.49-1.23s1.05-1,1.57-1.55A19.52,19.52,0,0,0,6.12,6.41a13.31,13.31,0,0,0,1.19-2l-.59.09L6,4.67l-.79.13-.69.13a1.78,1.78,0,0,0-.5.16,1.66,1.66,0,0,1-.52.17,1.79,1.79,0,0,1-.79-.06A5.25,5.25,0,0,1,2,4.93c-.15-.06-.2-.15-.16-.26a.29.29,0,0,1,.31-.18l.83,0c.25,0,.53,0,.86-.07l.73-.08.86-.12.74-.12A2.86,2.86,0,0,0,6.53,4a5,5,0,0,0,.69-.23A1.87,1.87,0,0,1,8,3.65a.32.32,0,0,1,.19.07.55.55,0,0,1,.14.19.52.52,0,0,1,0,.25A.43.43,0,0,1,8.24,4.43Z"/><path class="cls-1" d="M25.85,8.78a2.08,2.08,0,0,1-.13.81.84.84,0,0,1-.29.4.2.2,0,0,1-.29-.05A.88.88,0,0,1,25,9.37V2.78a.69.69,0,0,0-.31-.24l-.52-.23a4.3,4.3,0,0,1-.48-.22c-.15-.07-.22-.14-.22-.2s.06-.14.17-.19a1.4,1.4,0,0,1,.49,0l.5,0,.5.08.43.1a1.58,1.58,0,0,1,.26.1.26.26,0,0,1,.07.31,1.89,1.89,0,0,0,0,.38V6l.48-.08a1.27,1.27,0,0,0,.43-.11l.32-.16a1.79,1.79,0,0,1,.45-.12,4.45,4.45,0,0,1,.8,0,.57.57,0,0,1,.36.1.31.31,0,0,1,.12.23.35.35,0,0,1-.12.25.67.67,0,0,1-.35.14l-2.49.35Zm-.08,4.31a2.86,2.86,0,0,1-.19,1,2.72,2.72,0,0,1-.55.92,3.15,3.15,0,0,1-.92.7,4.19,4.19,0,0,1-1.31.4,3.5,3.5,0,0,1-1.3,0,2.72,2.72,0,0,1-1-.45,2.1,2.1,0,0,1-.62-.74A2.17,2.17,0,0,1,19.7,14a2,2,0,0,1,.23-1,2.68,2.68,0,0,1,.59-.78,3.71,3.71,0,0,1,.8-.56,5.28,5.28,0,0,1,.85-.35.2.2,0,0,0,.16-.17.16.16,0,0,0-.06-.14.38.38,0,0,0-.12-.09L22,10.81a.12.12,0,0,1-.07-.1c0-.06.07-.11.21-.14a1.4,1.4,0,0,1,.46,0,1.21,1.21,0,0,1,.46.17.4.4,0,0,1,.18.38,3,3,0,0,1,1.87.62A1.75,1.75,0,0,1,25.77,13.09Zm-2.83-1.48-.14.07-.13.06a3.72,3.72,0,0,0-1.49.8,1.73,1.73,0,0,0-.58,1.36,1.53,1.53,0,0,0,.58,1.3,2,2,0,0,0,1.62.29,2.58,2.58,0,0,0,.94-.28,2.49,2.49,0,0,0,.7-.53,2.15,2.15,0,0,0,.44-.68,2.07,2.07,0,0,0,.14-.78,1.41,1.41,0,0,0-.52-1.1A2.46,2.46,0,0,0,22.94,11.61ZM20.58,4.45a2,2,0,0,1-.25,1,10.3,10.3,0,0,1-.76,1.36l.81.65a1.7,1.7,0,0,0,.47.3l.5.24a3.43,3.43,0,0,1,.48.33,2.3,2.3,0,0,1,.45.54.81.81,0,0,1,.13.46.75.75,0,0,1-.1.39.31.31,0,0,1-.25.17.43.43,0,0,1-.34-.18,3.55,3.55,0,0,0-.4-.4l-.67-.63-.77-.7-.68-.61c-.24.34-.51.69-.79,1.06s-.58.72-.89,1.06-.62.67-.94,1-.64.61-.95.87a.45.45,0,0,1-.27.11.26.26,0,0,1-.2,0,.18.18,0,0,1-.06-.18.47.47,0,0,1,.16-.26c.28-.26.57-.56.88-.89s.62-.7.93-1.07.6-.76.88-1.15a12.67,12.67,0,0,0,.74-1.12,9.06,9.06,0,0,0,.52-1,2.25,2.25,0,0,0,.22-.81.72.72,0,0,0-.2-.29L18.9,4.3,18.6,4a.28.28,0,0,1-.12-.23c0-.09.1-.15.23-.19a.87.87,0,0,1,.5,0,2.92,2.92,0,0,1,.46.13,3.07,3.07,0,0,1,.45.2,2.36,2.36,0,0,1,.33.24A.34.34,0,0,1,20.58,4.45Z"/><path class="cls-1" d="M36.55,15.18a2.08,2.08,0,0,1-.13.81.86.86,0,0,1-.29.41.21.21,0,0,1-.29-.06,1,1,0,0,1-.13-.57V10.63L33.54,11l-1.47.25a3.48,3.48,0,0,0-.47.14,2.86,2.86,0,0,1-.56.14,1.93,1.93,0,0,1-.86-.08,7,7,0,0,1-.75-.29c-.14-.08-.19-.16-.14-.26a.22.22,0,0,1,.22-.15c.3,0,.6,0,.91,0s.61,0,.93-.07l1.42-.15c.52-.05,1.06-.12,1.61-.2L36.06,10l1.62-.25,1.43-.24,1.12-.21a1.94,1.94,0,0,0,.52-.15L41.11,9a1.65,1.65,0,0,1,.45-.11,4.33,4.33,0,0,1,.79,0,.45.45,0,0,1,.36.13.37.37,0,0,1,.12.26.4.4,0,0,1-.11.27.56.56,0,0,1-.35.17l-2.89.37-2.93.41ZM39.33,4.79a3.06,3.06,0,0,1-.19,1.07,3,3,0,0,1-.58,1,3.39,3.39,0,0,1-1,.75A4,4,0,0,1,36.2,8a3.74,3.74,0,0,1-1.39,0,2.54,2.54,0,0,1-1-.48,2.06,2.06,0,0,1-.63-.78,2.2,2.2,0,0,1-.22-1,2.13,2.13,0,0,1,.26-1,3.12,3.12,0,0,1,.64-.84,4.28,4.28,0,0,1,.86-.6,5.24,5.24,0,0,1,.87-.38.19.19,0,0,0,.16-.17.16.16,0,0,0-.06-.13.27.27,0,0,0-.12-.09l-.13-.08c-.05,0-.07-.06-.07-.1s.07-.11.21-.14a1.42,1.42,0,0,1,.46,0,1.1,1.1,0,0,1,.44.15.42.42,0,0,1,.2.38,3.58,3.58,0,0,1,1.14.19,2.65,2.65,0,0,1,.83.47,1.93,1.93,0,0,1,.52.66A1.78,1.78,0,0,1,39.33,4.79Zm-3-1.59-.14.06-.14.06a4,4,0,0,0-1.62.92,1.94,1.94,0,0,0-.61,1.41A1.87,1.87,0,0,0,34,6.4a1.48,1.48,0,0,0,.46.59,2,2,0,0,0,.74.33,2.54,2.54,0,0,0,1,0,3,3,0,0,0,1-.32A2.92,2.92,0,0,0,38,6.43a2.09,2.09,0,0,0,.46-.73,2,2,0,0,0,.16-.79A1.52,1.52,0,0,0,38,3.77a2.55,2.55,0,0,0-.69-.4A3.13,3.13,0,0,0,36.35,3.2Z"/><path class="cls-1" d="M59.45,12.21l-3,.38-3,.42-2.6.39-1.75.29a3.48,3.48,0,0,0-.47.14,2.86,2.86,0,0,1-.56.14,1.8,1.8,0,0,1-.86-.08,6,6,0,0,1-.74-.29c-.15-.08-.2-.16-.15-.26a.22.22,0,0,1,.22-.15h.91l.93-.07L49.84,13l1.61-.21,1.68-.24c.57-.08,1.11-.16,1.63-.25L56.19,12l1.12-.21a2,2,0,0,0,.53-.15,3.88,3.88,0,0,1,.36-.15,1.48,1.48,0,0,1,.44-.11,3.75,3.75,0,0,1,.79,0,.49.49,0,0,1,.36.12.35.35,0,0,1,.13.26.41.41,0,0,1-.12.28A.55.55,0,0,1,59.45,12.21ZM57,4.79c0,.23-.06.55-.11,1s-.13.87-.21,1.36-.16,1-.24,1.47-.18.93-.28,1.31a1.5,1.5,0,0,1-.25.62.64.64,0,0,1-.29.25.17.17,0,0,1-.22-.1.69.69,0,0,1,0-.44c.09-.42.17-.89.25-1.41s.16-1,.24-1.52.13-1,.17-1.42.07-.81.08-1.09l-.51.09-.8.12-1,.15-1,.15-.84.13-.59.11a2.18,2.18,0,0,0-.5.16,1.63,1.63,0,0,1-.53.17,1.76,1.76,0,0,1-.78-.06A3.56,3.56,0,0,1,49,5.54c-.15-.07-.2-.16-.16-.27a.32.32,0,0,1,.31-.18l.83,0L50.79,5l.61-.07.91-.13,1-.15,1-.14.76-.13.37-.07a4.79,4.79,0,0,0,.7-.23,2,2,0,0,1,.75-.1.15.15,0,0,1,.15.1.4.4,0,0,1,.06.22.82.82,0,0,1,0,.27A.93.93,0,0,1,57,4.79Z"/><path class="cls-1" d="M72.69,14.66a2.08,2.08,0,0,1-.13.81.83.83,0,0,1-.29.4.22.22,0,0,1-.29,0,.91.91,0,0,1-.13-.56V2.75a.55.55,0,0,0-.31-.25L71,2.27c-.18-.07-.34-.15-.49-.22s-.21-.14-.21-.2,0-.15.17-.19a1.52,1.52,0,0,1,.48,0l.5,0,.5.08.43.1a1.44,1.44,0,0,1,.27.1.29.29,0,0,1,.07.31,1.36,1.36,0,0,0-.06.38Zm-9.5-4.57a.73.73,0,0,0-.66-.78.14.14,0,0,1-.1-.08.29.29,0,0,1,0-.16.25.25,0,0,1,0-.15.17.17,0,0,1,.14-.06l.69,0a5,5,0,0,1,.77,0l2.26-.31A5.5,5.5,0,0,0,67,8.36l.67-.17.08-2.94-.57.09-.73.12-.76.14L65,5.73a1.68,1.68,0,0,0-.5.16,1.71,1.71,0,0,1-.53.17A2,2,0,0,1,63.16,6a4.14,4.14,0,0,1-.73-.26c-.15-.07-.2-.17-.16-.28s.14-.17.31-.17.58,0,.83,0l.85-.07c.18,0,.42,0,.71-.07L65.86,5l.8-.13.44-.09a1.69,1.69,0,0,0,.36-.12c.11,0,.22-.08.33-.12l.34-.07a1.41,1.41,0,0,1,.42,0,.26.26,0,0,1,.22.12.4.4,0,0,1,0,.22.62.62,0,0,1-.08.24.4.4,0,0,1-.13.17,4.76,4.76,0,0,0,0,.56c0,.25,0,.52-.06.8s0,.57-.07.85,0,.52-.07.72a.57.57,0,0,1,.34.11.27.27,0,0,1,.09.23.38.38,0,0,1-.14.23.53.53,0,0,1-.32.14L64,9.42v3.1c0,.12,0,.19.13.22a.5.5,0,0,0,.23,0c.4-.06.84-.14,1.31-.23s1-.21,1.45-.34,1-.27,1.49-.44,1-.34,1.45-.53a.31.31,0,0,1,.25,0,.23.23,0,0,1,.11.17.37.37,0,0,1,0,.22.39.39,0,0,1-.2.18c-.47.22-1,.42-1.48.62s-1,.36-1.55.52-1,.29-1.51.4-1,.21-1.37.27a1.16,1.16,0,0,1-.78-.14.68.68,0,0,1-.32-.63Z"/><path class="cls-1" d="M81.54,13V9.79a.44.44,0,0,0-.21-.19,1.88,1.88,0,0,0-.3-.12l-.27-.12a.18.18,0,0,1-.12-.16c0-.08.06-.14.17-.17A3.39,3.39,0,0,1,81.29,9a3.23,3.23,0,0,1,.6,0,1.21,1.21,0,0,1,.48.17c.08.05.11.15.07.29a1.48,1.48,0,0,0-.06.38v3l1.24-.19,1.16-.18,1-.18c.31-.06.58-.11.81-.17a1.94,1.94,0,0,0,.52-.15l.36-.15a2,2,0,0,1,.44-.11,4.67,4.67,0,0,1,.8,0,.48.48,0,0,1,.35.12.35.35,0,0,1,.13.27.41.41,0,0,1-.12.27.52.52,0,0,1-.35.16l-2.94.38-3,.43-2.61.38L78.44,14a4,4,0,0,0-.47.14,2.69,2.69,0,0,1-.56.14,1.76,1.76,0,0,1-.85-.08,7,7,0,0,1-.75-.29c-.15-.07-.2-.16-.15-.26a.24.24,0,0,1,.23-.15h.9l.94-.07,1.78-.2Zm4.79-8.32c0,.35-.07.74-.12,1.15s-.1.84-.16,1.26-.13.82-.21,1.21-.14.73-.2,1a1.67,1.67,0,0,1-.25.61.55.55,0,0,1-.29.24.18.18,0,0,1-.22-.1.65.65,0,0,1,0-.43c.06-.33.13-.71.2-1.13s.12-.87.18-1.32.09-.9.13-1.33.06-.83.07-1.17l-.51.08-.79.13-1,.15-1,.15-.84.13a5.34,5.34,0,0,0-.59.11,1.63,1.63,0,0,0-.49.16,1.75,1.75,0,0,1-.53.16,1.65,1.65,0,0,1-.79,0,5.25,5.25,0,0,1-.74-.27c-.15-.08-.2-.17-.16-.28a.33.33,0,0,1,.31-.18c.31,0,.58,0,.83,0s.54,0,.86-.07l.61-.07.92-.12,1-.15,1-.15.76-.12.38-.07a6.93,6.93,0,0,0,.69-.23,1.87,1.87,0,0,1,.76-.1.15.15,0,0,1,.14.09.52.52,0,0,1,.07.23,1.15,1.15,0,0,1,0,.26A1,1,0,0,1,86.33,4.64Z"/><path class="cls-1" d="M104.38,15.34l-5.25.75a.69.69,0,0,1-.13.39.25.25,0,0,1-.22.1.37.37,0,0,1-.22-.2,1,1,0,0,1-.12-.48l-.12-3a.74.74,0,0,0-.66-.78.15.15,0,0,1-.11-.08.41.41,0,0,1,0-.16.25.25,0,0,1,0-.15.17.17,0,0,1,.14-.06l.69,0a6.6,6.6,0,0,1,.77,0l.56-.06.78-.11.87-.13.82-.14.63-.11.32-.06a1.9,1.9,0,0,0,.36-.12l.33-.11.34-.08a1.79,1.79,0,0,1,.41,0c.12,0,.19.05.22.12a.43.43,0,0,1,0,.23.73.73,0,0,1-.07.24.45.45,0,0,1-.13.16c0,.15,0,.35-.08.62s-.06.54-.09.84l-.09.88c0,.29-.06.54-.08.76a.55.55,0,0,1,.4.09.28.28,0,0,1,.13.23.35.35,0,0,1-.12.25A.56.56,0,0,1,104.38,15.34Zm.32-6.69a2.1,2.1,0,0,1-.13.82.83.83,0,0,1-.29.4.21.21,0,0,1-.29,0,.89.89,0,0,1-.13-.56V2.67a.6.6,0,0,0-.31-.26L103,2.19,102.55,2c-.14-.07-.21-.13-.21-.2s0-.14.17-.18a1.1,1.1,0,0,1,.48-.05l.5,0,.5.08a3.07,3.07,0,0,1,.43.1,1.44,1.44,0,0,1,.27.1.26.26,0,0,1,.07.3,1.48,1.48,0,0,0-.06.39Zm-5.54,6.83,3.36-.47a4,4,0,0,0,.6-.12l.54-.16.08-3.07-1.29.17-1.31.19L100,12.2l-.82.13v2.16C99.17,14.85,99.17,15.18,99.16,15.48Zm2.12-11a11.51,11.51,0,0,1-1.23,2.12,18.1,18.1,0,0,1-1.63,2,21.09,21.09,0,0,1-1.79,1.66A20.65,20.65,0,0,1,95,11.48a.48.48,0,0,1-.29.08.23.23,0,0,1-.19-.08.22.22,0,0,1,0-.21.48.48,0,0,1,.2-.25c.47-.34,1-.75,1.49-1.22A20.78,20.78,0,0,0,97.7,8.25a21.45,21.45,0,0,0,1.46-1.79,14.26,14.26,0,0,0,1.18-2l-.58.1L99,4.71l-.79.14L97.54,5a1.68,1.68,0,0,0-.5.16,2.15,2.15,0,0,1-.53.17,1.8,1.8,0,0,1-.79-.06A5.76,5.76,0,0,1,95,5c-.14-.06-.2-.15-.15-.27s.14-.17.31-.17l.82,0c.25,0,.54,0,.86-.07l.73-.08.86-.12.74-.12A2.86,2.86,0,0,0,99.56,4a6.93,6.93,0,0,0,.69-.23,1.89,1.89,0,0,1,.76-.1.3.3,0,0,1,.19.07.45.45,0,0,1,.14.19.66.66,0,0,1,0,.25A.64.64,0,0,1,101.28,4.48Z"/><path class="cls-1" d="M119.35,14.54a2.1,2.1,0,0,1-.13.82.9.9,0,0,1-.29.4.22.22,0,0,1-.29,0,.88.88,0,0,1-.13-.57V7.27l-.48.11-.57.12c-.18,0-.35.08-.5.1l-.32.06a2.85,2.85,0,0,1-.65,0,2.15,2.15,0,0,1-.5-.12c-.15,0-.21-.14-.18-.26s.12-.18.27-.18a4.38,4.38,0,0,0,.54,0l.55-.07.27,0,.49-.09.57-.1.51-.08V2.62a.69.69,0,0,0-.31-.24l-.52-.22-.48-.22c-.15-.07-.22-.14-.22-.2s.06-.15.17-.19a1.36,1.36,0,0,1,.49-.05l.49.05.51.08a3.45,3.45,0,0,1,.43.1l.27.1c.08,0,.1.15.07.3a1.43,1.43,0,0,0-.06.39Zm-5.27-9.31a3.94,3.94,0,0,1-.33,1.34,13.48,13.48,0,0,1-.9,1.85l1.19.84a1.94,1.94,0,0,0,.48.28l.49.25a2.29,2.29,0,0,1,.48.33,3.21,3.21,0,0,1,.45.54.86.86,0,0,1,0,.86.32.32,0,0,1-.26.18c-.11,0-.22,0-.33-.19l-.46-.43-.79-.7-.88-.77L112.51,9A24.67,24.67,0,0,1,111,11.16,13.5,13.5,0,0,1,109.13,13a.46.46,0,0,1-.27.12.24.24,0,0,1-.19-.05.2.2,0,0,1-.06-.18.4.4,0,0,1,.14-.26,17.23,17.23,0,0,0,1.54-1.72A20.32,20.32,0,0,0,111.61,9a13.17,13.17,0,0,0,.93-1.83,4.9,4.9,0,0,0,.39-1.58.8.8,0,0,0-.2-.29c-.11-.09-.21-.19-.33-.28s-.21-.17-.3-.25-.13-.16-.12-.22.1-.15.23-.19a1.05,1.05,0,0,1,.5,0,3,3,0,0,1,.46.14,4.68,4.68,0,0,1,.45.2A1.76,1.76,0,0,1,114,5,.33.33,0,0,1,114.08,5.23Z"/><path class="cls-1" d="M134.67,15.14l-5.88.82a1.28,1.28,0,0,1-.84-.12.68.68,0,0,1-.34-.63v-2a.39.39,0,0,0-.26-.2l-.4-.08-.36-.07c-.11,0-.16-.07-.16-.13a.25.25,0,0,1,.12-.21,1.26,1.26,0,0,1,.43-.12l.34,0a3.15,3.15,0,0,1,.44,0,2.7,2.7,0,0,1,.41,0,.77.77,0,0,1,.27.06.24.24,0,0,1,.07.27,1.12,1.12,0,0,0-.06.35v2.14a.21.21,0,0,0,.13.22.5.5,0,0,0,.23,0l3.72-.55a2,2,0,0,0,.58-.13l.35-.16.41-.12a4.21,4.21,0,0,1,.78,0,.53.53,0,0,1,.36.11.28.28,0,0,1,.12.23A.34.34,0,0,1,135,15,.6.6,0,0,1,134.67,15.14ZM134,10.93a2.07,2.07,0,0,1-.14.81.77.77,0,0,1-.28.4.21.21,0,0,1-.29,0,.83.83,0,0,1-.13-.56V8.11l-.38.09-.4.1-.37.07-.26.05a2.37,2.37,0,0,1-.65,0,3.36,3.36,0,0,1-.5-.1q-.22-.08-.18-.27a.24.24,0,0,1,.27-.18l.54,0,.55-.07.22,0,.36-.07.41-.08.39-.07V5.46l-.38.09-.4.1-.37.08-.26,0a2.37,2.37,0,0,1-.65,0,3.36,3.36,0,0,1-.5-.1q-.22-.07-.18-.27a.24.24,0,0,1,.27-.18l.54,0,.55-.07.22,0,.36-.07.41-.08.39-.07V2.77a.63.63,0,0,0-.32-.26c-.16-.08-.33-.16-.51-.23l-.48-.21c-.15-.07-.22-.13-.22-.19s.06-.15.17-.19a1.28,1.28,0,0,1,.48-.05l.5,0,.51.08.43.1A1.58,1.58,0,0,1,134,2a.26.26,0,0,1,.07.31,1.37,1.37,0,0,0-.05.38Zm-3.74-4A4.05,4.05,0,0,1,130.09,8a3.06,3.06,0,0,1-.55,1,3.18,3.18,0,0,1-.95.78,3.92,3.92,0,0,1-1.39.43,3.63,3.63,0,0,1-1.37,0,2.53,2.53,0,0,1-1-.49,2.1,2.1,0,0,1-.6-.84A2.78,2.78,0,0,1,124,7.8a2.54,2.54,0,0,1,.22-1.1,3,3,0,0,1,.59-.84,4,4,0,0,1,.81-.62,9.08,9.08,0,0,1,.9-.42c.12,0,.19-.11.19-.2a.29.29,0,0,0-.07-.18l-.16-.13-.16-.1a.14.14,0,0,1-.07-.11c0-.06.08-.1.22-.13A1.56,1.56,0,0,1,127,4a1.13,1.13,0,0,1,.49.21.52.52,0,0,1,.2.46,3.91,3.91,0,0,1,1.06.23,2.75,2.75,0,0,1,.82.49,2,2,0,0,1,.52.68A1.84,1.84,0,0,1,130.26,6.88Zm-2.93-1.73a1.42,1.42,0,0,1-.25.12,3.94,3.94,0,0,0-.86.38,3.26,3.26,0,0,0-.68.53,2.46,2.46,0,0,0-.45.7,2.13,2.13,0,0,0-.16.84,2.3,2.3,0,0,0,.14.85,1.58,1.58,0,0,0,.43.64,1.65,1.65,0,0,0,.71.36,2.48,2.48,0,0,0,1,0,3.06,3.06,0,0,0,1-.33,2.68,2.68,0,0,0,.72-.6,2.39,2.39,0,0,0,.43-.78,2.94,2.94,0,0,0,.14-.88,1.47,1.47,0,0,0-.16-.67,1.87,1.87,0,0,0-.43-.58,2.57,2.57,0,0,0-.69-.41A3.12,3.12,0,0,0,127.33,5.15Z"/><path class="cls-1" d="M150.91,4.6a11.3,11.3,0,0,1-1.22,2.1,19,19,0,0,1-1.62,2c-.59.6-1.18,1.15-1.78,1.65a20.06,20.06,0,0,1-1.67,1.25.57.57,0,0,1-.29.09.29.29,0,0,1-.19-.09.22.22,0,0,1,0-.2.49.49,0,0,1,.2-.25c.47-.34,1-.74,1.49-1.21s1-1,1.55-1.54a18,18,0,0,0,1.45-1.79A13.15,13.15,0,0,0,150,4.61l-.58.09-.74.14-.79.13-.68.12a2.62,2.62,0,0,0-.49.17,2.1,2.1,0,0,1-.53.16,1.75,1.75,0,0,1-.78-.06,4.24,4.24,0,0,1-.74-.27c-.14-.06-.2-.15-.15-.26s.14-.17.31-.17.57,0,.82,0,.53,0,.85-.07l.73-.09.85-.12.74-.12.41-.08c.26-.08.49-.15.69-.23a1.82,1.82,0,0,1,.75-.1.27.27,0,0,1,.18.07.45.45,0,0,1,.14.19.49.49,0,0,1,0,.24A.56.56,0,0,1,150.91,4.6Zm4,11-5.69.81a1.18,1.18,0,0,1-.83-.14.68.68,0,0,1-.35-.62v-1a.72.72,0,0,0-.65-.77.16.16,0,0,1-.11-.09.32.32,0,0,1,0-.14.24.24,0,0,1,.05-.14.17.17,0,0,1,.14-.06l.69,0a3.3,3.3,0,0,1,.77,0l3.09-.46a3.05,3.05,0,0,0,.62-.13l.58-.16.06-1.69-.68.12-1,.15-1,.17-.78.14a2.11,2.11,0,0,0-.5.17,1.94,1.94,0,0,1-.53.15,1.91,1.91,0,0,1-.78-.05,5.76,5.76,0,0,1-.74-.27c-.14-.07-.19-.15-.15-.27s.14-.17.31-.17.57,0,.82,0l.85-.06.82-.11,1.12-.16,1-.17.54-.09.36-.11.33-.13.34-.08a2.8,2.8,0,0,1,.41,0c.11,0,.19,0,.22.11a.36.36,0,0,1,0,.21.68.68,0,0,1-.08.24.62.62,0,0,1-.12.17c0,.23-.07.51-.12.82s-.08.6-.12.85a.51.51,0,0,1,.33.13.28.28,0,0,1,.08.22.44.44,0,0,1-.13.24.63.63,0,0,1-.32.14l-5,.69v1.6a.2.2,0,0,0,.14.21.65.65,0,0,0,.23,0l3.53-.49a2,2,0,0,0,.58-.14l.35-.15a1.68,1.68,0,0,1,.41-.12,4,4,0,0,1,.77,0,.59.59,0,0,1,.36.1.31.31,0,0,1,.12.23.36.36,0,0,1-.11.25A.6.6,0,0,1,154.91,15.58Zm-1.43-7.7L153,8l-.56.12-.5.1-.32.06a2.84,2.84,0,0,1-.65,0,2.19,2.19,0,0,1-.49-.12.24.24,0,0,1-.16-.11.21.21,0,0,1,0-.15.22.22,0,0,1,.09-.14.33.33,0,0,1,.19,0l.53,0,.55-.06.27-.06.49-.08.57-.1.5-.09V5.56l-.4.1-.46.1-.41.08-.28.06a2.36,2.36,0,0,1-.65,0,1.7,1.7,0,0,1-.49-.11c-.15,0-.21-.14-.18-.26s.11-.18.27-.18l.53,0,.55-.07.24,0,.41-.07.45-.08.42-.08V2.8a.58.58,0,0,0-.31-.24l-.51-.23-.48-.21C152,2,152,2,152,1.92s.06-.15.17-.19a1.33,1.33,0,0,1,.48-.05l.5.05.5.07a3.57,3.57,0,0,1,.43.09.91.91,0,0,1,.26.12c.09.05.11.15.07.29a1.72,1.72,0,0,0-.05.37V8.28a2.29,2.29,0,0,1-.13.81.84.84,0,0,1-.29.4.22.22,0,0,1-.29,0,.91.91,0,0,1-.13-.56Z"/><path class="cls-1" d="M163,10.78V9.29a2.71,2.71,0,0,1-1.8-.45,1.58,1.58,0,0,1-.65-1.32,1.83,1.83,0,0,1,.23-.9,3.14,3.14,0,0,1,.56-.74,3.24,3.24,0,0,1,.75-.54A5,5,0,0,1,162.9,5a.2.2,0,0,0,.16-.17.22.22,0,0,0-.11-.17l-.92.15-.75.13a2.53,2.53,0,0,0-.47.15,1.92,1.92,0,0,1-.56.13,2.07,2.07,0,0,1-.69,0,2.83,2.83,0,0,1-.67-.2c-.15-.07-.19-.16-.15-.26A.23.23,0,0,1,159,4.6l.69,0c.28,0,.58,0,.9-.08l.78-.1,1-.15,1.08-.16,1-.17.77-.13.41-.07a2.18,2.18,0,0,0,.36-.15,2.09,2.09,0,0,1,.3-.14,2.47,2.47,0,0,1,.41-.08,6.65,6.65,0,0,1,.73,0,.52.52,0,0,1,.35.1.31.31,0,0,1,.13.23.35.35,0,0,1-.12.24.63.63,0,0,1-.35.14l-.53.08-.83.12-1,.14-1.14.17a.4.4,0,0,1,.11.31,3,3,0,0,1,1.72.61,1.58,1.58,0,0,1,.62,1.22,2.33,2.33,0,0,1-.61,1.57,3.29,3.29,0,0,1-1.84.94v1.47l2.07-.33c.64-.11,1.17-.2,1.58-.29a2.48,2.48,0,0,0,.52-.14l.36-.16a3.13,3.13,0,0,1,.44-.11,5.92,5.92,0,0,1,.79,0,.49.49,0,0,1,.36.12.39.39,0,0,1,.12.27.45.45,0,0,1-.11.27.55.55,0,0,1-.35.16l-2.93.38-3,.42-2.59.39c-.77.11-1.35.21-1.74.28A3.48,3.48,0,0,0,159,12a2.69,2.69,0,0,1-.56.14,1.76,1.76,0,0,1-.85-.08,6,6,0,0,1-.74-.29c-.15-.07-.2-.16-.15-.26a.24.24,0,0,1,.22-.14c.3,0,.6,0,.9,0l.93-.07c.59-.05,1.27-.13,2-.23S162.26,10.89,163,10.78Zm4.18,4.52-6,.85a1.22,1.22,0,0,1-.84-.13.69.69,0,0,1-.34-.63V13.84a.37.37,0,0,0-.25-.17,2.88,2.88,0,0,0-.4-.09l-.36-.07c-.11,0-.17-.07-.17-.13a.22.22,0,0,1,.13-.2,1.38,1.38,0,0,1,.43-.13l.33,0a3.15,3.15,0,0,1,.44,0h.41a.66.66,0,0,1,.26.06.22.22,0,0,1,.07.27,1.48,1.48,0,0,0-.05.35v1.66a.21.21,0,0,0,.13.22.34.34,0,0,0,.22,0L165.1,15a2,2,0,0,0,.58-.14l.34-.15a1.83,1.83,0,0,1,.41-.12,4.21,4.21,0,0,1,.78,0,.64.64,0,0,1,.36.1.31.31,0,0,1,.12.24.33.33,0,0,1-.12.24A.54.54,0,0,1,167.22,15.3ZM165.09,2.78l-2.36.33a2.48,2.48,0,0,1-.7,0,2.92,2.92,0,0,1-.66-.19.24.24,0,0,1-.14-.12.2.2,0,0,1,0-.13l.09-.09a.17.17,0,0,1,.14,0h1l.25,0,.5-.06.69-.08.68-.08.47,0a.71.71,0,0,1,.36.08.25.25,0,0,1,.13.18.26.26,0,0,1-.11.2A.66.66,0,0,1,165.09,2.78Zm-1.43,2.56-.26.12a3.67,3.67,0,0,0-1.37.75,1.61,1.61,0,0,0-.54,1.24,1,1,0,0,0,.6,1,1.72,1.72,0,0,0,.64.19,3,3,0,0,0,.79,0,3.44,3.44,0,0,0,.81-.21A3,3,0,0,0,165,8a2,2,0,0,0,.44-.53,1.28,1.28,0,0,0,.16-.65,1.24,1.24,0,0,0-.51-1A2.36,2.36,0,0,0,163.66,5.34Z"/><path class="cls-1" d="M177.87,5.15l-.74.1-1,.14L175,5.58l-1.2.21a3.48,3.48,0,0,0-.47.14,1.84,1.84,0,0,1-.56.14A2.08,2.08,0,0,1,172,6a3,3,0,0,1-.67-.2c-.14-.08-.19-.16-.15-.26a.24.24,0,0,1,.23-.15l.69,0,.9-.09,1-.13.9-.14.73-.13.43-.09a2,2,0,0,0,.37-.15,1.48,1.48,0,0,1,.29-.12,2.61,2.61,0,0,1,.42-.1,6.57,6.57,0,0,1,.72,0,.53.53,0,0,1,.36.1.28.28,0,0,1,.12.23.38.38,0,0,1-.11.25A.66.66,0,0,1,177.87,5.15Zm-.16,3.21a2.45,2.45,0,0,1-.19,1,2.71,2.71,0,0,1-.55.84,3.06,3.06,0,0,1-.86.64,3.67,3.67,0,0,1-1.12.35,3.13,3.13,0,0,1-1.11,0,2.57,2.57,0,0,1-.91-.38,1.92,1.92,0,0,1-.61-.66,1.71,1.71,0,0,1-.22-.87,2.18,2.18,0,0,1,.21-1,3.15,3.15,0,0,1,.55-.75,3.82,3.82,0,0,1,.72-.55,3.44,3.44,0,0,1,.75-.33.2.2,0,0,0,.15-.17.19.19,0,0,0-.05-.13l-.13-.1-.13-.07a.12.12,0,0,1-.06-.1c0-.07.07-.11.21-.14a1.77,1.77,0,0,1,.46,0,1,1,0,0,1,.44.16.39.39,0,0,1,.19.38,3.54,3.54,0,0,1,1,.21,2.34,2.34,0,0,1,.71.42,2,2,0,0,1,.44.59A1.82,1.82,0,0,1,177.71,8.36Zm-2.58-1.42a1,1,0,0,1-.27.12,3,3,0,0,0-1.33.77,1.75,1.75,0,0,0-.5,1.29,1.26,1.26,0,0,0,.55,1.15,2,2,0,0,0,1.41.23,2.65,2.65,0,0,0,.8-.24,2.11,2.11,0,0,0,.63-.45,2.08,2.08,0,0,0,.4-.61,1.66,1.66,0,0,0,.15-.7,1.47,1.47,0,0,0-.45-1A2.09,2.09,0,0,0,175.13,6.94Zm1.11-3.35-1.66.25a2.17,2.17,0,0,1-.69-.06,2.41,2.41,0,0,1-.67-.21c-.15-.07-.19-.16-.15-.25a.24.24,0,0,1,.23-.15h1l.25,0c.23,0,.49-.07.77-.09l.88-.07a.45.45,0,0,1,.3.07.3.3,0,0,1,.1.2.34.34,0,0,1-.1.21A.41.41,0,0,1,176.24,3.59Zm0,12.8a1.18,1.18,0,0,1-.22.39.28.28,0,0,1-.24.12c-.08,0-.14,0-.2-.16a1,1,0,0,1-.09-.48V12.74a.47.47,0,0,0-.24-.22l-.38-.15-.35-.15c-.11-.05-.16-.11-.16-.17s.06-.15.17-.2a1.83,1.83,0,0,1,.48-.08,6.51,6.51,0,0,1,.75,0,1.16,1.16,0,0,1,.55.14.26.26,0,0,1,.07.31,2,2,0,0,0-.05.38v.83l4.52-.71V11.52a.58.58,0,0,0-.24-.22l-.38-.16a2.3,2.3,0,0,1-.35-.15c-.1-.05-.16-.1-.16-.17s.06-.14.17-.19a1.28,1.28,0,0,1,.48-.07,5,5,0,0,1,.76,0,1.11,1.11,0,0,1,.54.16c.09.05.11.15.08.3a1.48,1.48,0,0,0-.06.38v3.33a2.18,2.18,0,0,1-.11.74,1,1,0,0,1-.24.42.26.26,0,0,1-.28.06c-.08,0-.14-.15-.18-.34Zm.09-.73v.06L180.9,15v-1.6l-4.52.71Zm5.36-7.1a2.08,2.08,0,0,1-.13.81.83.83,0,0,1-.29.4.21.21,0,0,1-.28,0,.87.87,0,0,1-.14-.57V2.91a.55.55,0,0,0-.3-.24l-.52-.23c-.17-.07-.33-.14-.48-.22s-.22-.13-.22-.2.06-.14.18-.18a1.28,1.28,0,0,1,.48-.05l.49.05a4.17,4.17,0,0,1,.51.08,3.26,3.26,0,0,1,.42.1.87.87,0,0,1,.26.1c.09,0,.11.15.08.29a1.55,1.55,0,0,0-.06.39V6.22l.48-.07a1.86,1.86,0,0,0,.43-.13l.32-.15a3.24,3.24,0,0,1,.44-.12,3.49,3.49,0,0,1,.79,0,.53.53,0,0,1,.36.1.31.31,0,0,1,.12.23.34.34,0,0,1-.11.25.6.6,0,0,1-.35.15l-2.48.36Z"/><path class="cls-1" d="M185.69,5.82a.22.22,0,0,1,.13-.2,1.15,1.15,0,0,1,.43-.13l.36,0h.48l.45,0a.92.92,0,0,1,.29.07.24.24,0,0,1,.07.27,1.1,1.1,0,0,0-.05.35v4.63c0,.12,0,.19.13.22a.45.45,0,0,0,.22,0,17.21,17.21,0,0,0,2.67-.6,27.63,27.63,0,0,0,2.85-1,.32.32,0,0,1,.25,0,.21.21,0,0,1,.1.16.39.39,0,0,1,0,.23.41.41,0,0,1-.2.19c-.48.22-1,.44-1.46.64s-1,.39-1.49.56-1,.32-1.45.44a13.11,13.11,0,0,1-1.32.28,1.11,1.11,0,0,1-.78-.15.69.69,0,0,1-.32-.63V6.33a.43.43,0,0,0-.28-.18,3,3,0,0,0-.45-.11L185.87,6C185.75,5.93,185.69,5.88,185.69,5.82Zm10.46,8.74a2,2,0,0,1-.13.8.94.94,0,0,1-.29.41.21.21,0,0,1-.29-.06.94.94,0,0,1-.13-.56V2.71a.54.54,0,0,0-.31-.24c-.16-.08-.33-.16-.51-.23S194.16,2.1,194,2s-.21-.14-.21-.2,0-.14.17-.18a1.28,1.28,0,0,1,.48,0l.49,0,.5.07.43.1a1,1,0,0,1,.26.11c.09.05.11.14.07.29a1.89,1.89,0,0,0,0,.39Z"/><path class="cls-1" d="M201.17,6.27v5.08a.21.21,0,0,0,.13.22.37.37,0,0,0,.23,0c.4-.05.83-.13,1.3-.23s.95-.22,1.44-.36,1-.3,1.48-.48,1-.36,1.45-.55a.26.26,0,0,1,.24,0,.21.21,0,0,1,.11.15.34.34,0,0,1-.05.23.36.36,0,0,1-.2.18c-.47.23-1,.45-1.48.65s-1,.4-1.54.57-1,.32-1.5.44a12.1,12.1,0,0,1-1.35.28,1.06,1.06,0,0,1-.78-.13.71.71,0,0,1-.32-.63V6.89a.6.6,0,0,0-.23-.5,1.58,1.58,0,0,0-.56-.24.19.19,0,0,1-.14-.22.21.21,0,0,1,.19-.22,5.36,5.36,0,0,1,.76,0,7.36,7.36,0,0,1,.83,0l2-.28a2.76,2.76,0,0,0,.57-.14l.35-.15A1.65,1.65,0,0,1,204.5,5a4.1,4.1,0,0,1,.77,0,.59.59,0,0,1,.36.12.28.28,0,0,1,.12.23.3.3,0,0,1-.11.24.63.63,0,0,1-.35.14Zm8.46,8.5a2.25,2.25,0,0,1-.13.81.84.84,0,0,1-.29.4.22.22,0,0,1-.29,0,.85.85,0,0,1-.13-.56V2.94a.6.6,0,0,0-.31-.26c-.16-.08-.33-.15-.51-.22s-.34-.15-.48-.22-.22-.14-.22-.2.06-.14.17-.19a1.36,1.36,0,0,1,.48,0l.5,0,.5.08.43.1a1.58,1.58,0,0,1,.26.1.25.25,0,0,1,.07.3,1.89,1.89,0,0,0-.05.38V7.94l.48-.06a1.43,1.43,0,0,0,.42-.12l.32-.16a2,2,0,0,1,.44-.12,4.5,4.5,0,0,1,.8,0,.55.55,0,0,1,.36.1.28.28,0,0,1,.12.23.34.34,0,0,1-.11.24.66.66,0,0,1-.35.14l-2.48.36Z"/></svg>