<svg id="Layer_1" data-name="Layer 1" xmlns="http://www.w3.org/2000/svg" viewBox="0 0 170 143"><defs><style>.cls-1{fill:#707070;}</style></defs><title>Artboard 1</title><path class="cls-1" d="M18.33,22.88l-8.18,1.17a1,1,0,0,1-.19.6.37.37,0,0,1-.35.16.61.61,0,0,1-.34-.31,1.59,1.59,0,0,1-.18-.75l-.19-4.6a1.17,1.17,0,0,0-1-1.22.21.21,0,0,1-.17-.13.47.47,0,0,1,0-.24.35.35,0,0,1,.07-.23.25.25,0,0,1,.22-.1l1.08,0a9.65,9.65,0,0,1,1.2,0c.21,0,.5-.05.87-.1L12.31,17l1.35-.21,1.27-.21,1-.17.5-.09A2.93,2.93,0,0,0,17,16.1a5.17,5.17,0,0,1,.51-.18A4.54,4.54,0,0,1,18,15.8a2.65,2.65,0,0,1,.64,0A.37.37,0,0,1,19,16a.67.67,0,0,1,0,.35.89.89,0,0,1-.12.38.77.77,0,0,1-.19.25c0,.23-.08.55-.12,1s-.1.85-.15,1.31-.09.91-.14,1.37-.09.85-.12,1.19a.83.83,0,0,1,.62.13.46.46,0,0,1,.2.36.54.54,0,0,1-.18.39A.9.9,0,0,1,18.33,22.88Zm.5-10.4a3.2,3.2,0,0,1-.2,1.26,1.38,1.38,0,0,1-.45.63.33.33,0,0,1-.45-.07,1.32,1.32,0,0,1-.2-.87V3.17a.94.94,0,0,0-.49-.4l-.8-.35c-.27-.11-.53-.22-.75-.33s-.34-.21-.34-.3.09-.23.27-.29a2,2,0,0,1,.75-.08,7.43,7.43,0,0,1,.78.05l.78.13a4.81,4.81,0,0,1,.67.15,2,2,0,0,1,.41.16.4.4,0,0,1,.11.47,2.3,2.3,0,0,0-.09.6ZM10.2,23.1l5.24-.73a6.16,6.16,0,0,0,.92-.19l.85-.24.12-4.78-2,.27-2,.29c-.65.09-1.25.19-1.79.28l-1.27.2v3.36C10.23,22.12,10.22,22.63,10.2,23.1ZM13.5,6a17.86,17.86,0,0,1-1.9,3.3,27.72,27.72,0,0,1-2.55,3A32.87,32.87,0,0,1,6.28,14.9a31.42,31.42,0,0,1-2.62,2,.74.74,0,0,1-.45.13.39.39,0,0,1-.3-.13.32.32,0,0,1-.05-.32.75.75,0,0,1,.31-.38C3.9,15.63,4.68,15,5.5,14.26s1.64-1.54,2.44-2.41A29.57,29.57,0,0,0,10.2,9.06,21.38,21.38,0,0,0,12.05,6l-.91.14L10,6.35l-1.22.2-1.07.21A2.62,2.62,0,0,0,6.91,7a2.93,2.93,0,0,1-.83.26,2.86,2.86,0,0,1-1.22-.09,7.3,7.3,0,0,1-1.15-.42c-.23-.1-.31-.24-.25-.41A.46.46,0,0,1,4,6.08L5.24,6l1.33-.11,1.14-.13L9,5.59l1.15-.18a4.67,4.67,0,0,0,.64-.13,9.2,9.2,0,0,0,1.08-.35,2.88,2.88,0,0,1,1.18-.16.5.5,0,0,1,.29.11.64.64,0,0,1,.22.29.84.84,0,0,1,.06.39A.81.81,0,0,1,13.5,6Z"/><path class="cls-1" d="M40.9,12.75A3.21,3.21,0,0,1,40.69,14a1.31,1.31,0,0,1-.45.63.32.32,0,0,1-.45-.09,1.42,1.42,0,0,1-.2-.88V3.41A1,1,0,0,0,39.1,3l-.8-.36-.75-.33c-.22-.12-.34-.22-.34-.32s.09-.23.27-.29a2,2,0,0,1,.75-.07c.24,0,.5,0,.78.07s.53.07.78.12a6.66,6.66,0,0,1,.67.16,1.82,1.82,0,0,1,.41.16.4.4,0,0,1,.11.47,2.75,2.75,0,0,0-.08.59V8.36l.75-.12a2,2,0,0,0,.67-.17c.15-.08.31-.17.49-.25a3,3,0,0,1,.7-.19,7.07,7.07,0,0,1,1.24,0,.83.83,0,0,1,.56.16.47.47,0,0,1,.19.36.51.51,0,0,1-.18.38,1,1,0,0,1-.55.22l-3.87.55Zm-.12,6.71a4.46,4.46,0,0,1-.3,1.61,4.25,4.25,0,0,1-.86,1.44,4.92,4.92,0,0,1-1.44,1.09,6.36,6.36,0,0,1-2,.61,5.21,5.21,0,0,1-2,0,4.05,4.05,0,0,1-1.51-.7,3.24,3.24,0,0,1-1-1.15,3.43,3.43,0,0,1,0-3,4.36,4.36,0,0,1,.92-1.21,5,5,0,0,1,1.25-.87,7.27,7.27,0,0,1,1.32-.55.34.34,0,0,0,.24-.27.25.25,0,0,0-.09-.21.94.94,0,0,0-.19-.14l-.21-.12a.18.18,0,0,1-.09-.16c0-.09.1-.17.32-.21a2.13,2.13,0,0,1,.72,0,1.56,1.56,0,0,1,.7.26.6.6,0,0,1,.29.59,4.65,4.65,0,0,1,2.9,1A2.72,2.72,0,0,1,40.78,19.46Zm-4.42-2.3a.75.75,0,0,0-.2.1l-.21.09a6.1,6.1,0,0,0-2.33,1.25,2.75,2.75,0,0,0-.89,2.12,2.43,2.43,0,0,0,.89,2,3.26,3.26,0,0,0,2.53.46,4.16,4.16,0,0,0,1.46-.44,4,4,0,0,0,1.09-.82,3.4,3.4,0,0,0,.68-1.07,3.14,3.14,0,0,0,.23-1.21A2.2,2.2,0,0,0,38.8,18,3.87,3.87,0,0,0,36.36,17.16ZM32.7,6a3.09,3.09,0,0,1-.38,1.5,19.38,19.38,0,0,1-1.19,2.11l1.26,1a2.8,2.8,0,0,0,.73.46c.25.11.51.24.77.37a4.52,4.52,0,0,1,.75.51,3.86,3.86,0,0,1,.71.84,1.32,1.32,0,0,1,.2.73,1.11,1.11,0,0,1-.16.6.51.51,0,0,1-.39.27.67.67,0,0,1-.53-.29c-.09-.11-.3-.32-.61-.62s-.67-.63-1.06-1-.78-.72-1.19-1.08l-1.06-1c-.38.54-.79,1.08-1.23,1.65s-.91,1.12-1.38,1.65-1,1.05-1.47,1.55-1,1-1.48,1.36a.77.77,0,0,1-.41.18.44.44,0,0,1-.31-.08.29.29,0,0,1-.1-.28.79.79,0,0,1,.24-.4c.44-.41.9-.87,1.38-1.4s1-1.08,1.45-1.66.93-1.18,1.37-1.78.82-1.19,1.15-1.76a13.31,13.31,0,0,0,.81-1.59,3.83,3.83,0,0,0,.34-1.27,1.3,1.3,0,0,0-.32-.45c-.16-.15-.33-.3-.5-.43s-.34-.27-.48-.4A.45.45,0,0,1,29.43,5c0-.13.15-.22.36-.29a1.5,1.5,0,0,1,.78,0,4.64,4.64,0,0,1,.72.2,4.85,4.85,0,0,1,.69.32,2.79,2.79,0,0,1,.52.37A.55.55,0,0,1,32.7,6Z"/><path class="cls-1" d="M57.55,22.71a3.39,3.39,0,0,1-.2,1.26,1.32,1.32,0,0,1-.45.63.33.33,0,0,1-.45-.08,1.38,1.38,0,0,1-.21-.89v-8c-1.26.18-2.38.35-3.38.51l-2.29.39a4.94,4.94,0,0,0-.73.22A4.09,4.09,0,0,1,49,17a3,3,0,0,1-1.33-.12,11.36,11.36,0,0,1-1.17-.47c-.22-.11-.3-.24-.23-.4a.38.38,0,0,1,.36-.23,13.1,13.1,0,0,0,1.4,0c.47,0,1-.06,1.46-.11l2.2-.23c.81-.09,1.65-.19,2.51-.31l2.61-.38,2.52-.39L61.53,14l1.75-.33a3.7,3.7,0,0,0,.81-.23c.18-.09.37-.17.55-.24a2.87,2.87,0,0,1,.7-.17,7.11,7.11,0,0,1,1.23,0,.71.71,0,0,1,.56.2.56.56,0,0,1,.19.41.65.65,0,0,1-.18.42.86.86,0,0,1-.54.26c-1.43.17-2.92.37-4.49.58l-4.56.63ZM61.87,6.54a5,5,0,0,1-.29,1.66,4.51,4.51,0,0,1-.9,1.49,5.66,5.66,0,0,1-1.51,1.18,6.22,6.22,0,0,1-2.17.66,5.5,5.5,0,0,1-2.16-.06,4,4,0,0,1-1.59-.74,3.22,3.22,0,0,1-1-1.22A3.45,3.45,0,0,1,51.93,8a3.29,3.29,0,0,1,.4-1.61,4.89,4.89,0,0,1,1-1.29,6,6,0,0,1,1.33-1A7.58,7.58,0,0,1,56,3.56a.32.32,0,0,0,.24-.27.29.29,0,0,0-.09-.21A.94.94,0,0,0,56,2.94l-.21-.12a.19.19,0,0,1-.09-.16c0-.1.11-.17.32-.21a2.4,2.4,0,0,1,.71,0,2,2,0,0,1,.69.24.65.65,0,0,1,.31.59,5.55,5.55,0,0,1,1.77.3,4.16,4.16,0,0,1,1.3.73,3,3,0,0,1,.8,1A2.69,2.69,0,0,1,61.87,6.54ZM57.24,4.07,57,4.16a1.12,1.12,0,0,1-.22.1,6.14,6.14,0,0,0-2.52,1.42,3,3,0,0,0-.94,2.19,2.9,2.9,0,0,0,.24,1.18,2.35,2.35,0,0,0,.71.91,3.11,3.11,0,0,0,1.15.52,4.22,4.22,0,0,0,1.56,0A4.39,4.39,0,0,0,58.58,10a4.69,4.69,0,0,0,1.17-.91A3.81,3.81,0,0,0,60.46,8a3.4,3.4,0,0,0,.24-1.23,2.28,2.28,0,0,0-.21-.93A2.65,2.65,0,0,0,59.83,5a3.73,3.73,0,0,0-1.08-.62A4.53,4.53,0,0,0,57.24,4.07Z"/><path class="cls-1" d="M21,43.79c-1.44.18-3,.37-4.59.59L11.77,45l-4,.6L5,46.09a5.33,5.33,0,0,0-.73.22,4.25,4.25,0,0,1-.87.22,3,3,0,0,1-1.33-.12A11.45,11.45,0,0,1,.89,46c-.22-.12-.3-.25-.22-.4A.35.35,0,0,1,1,45.32c.46,0,.93,0,1.4,0s1-.06,1.46-.1L6.06,45c.81-.08,1.64-.19,2.51-.31l2.62-.38,2.53-.38L16,43.51l1.75-.33a3.22,3.22,0,0,0,.81-.23,5.55,5.55,0,0,1,.56-.24,3.15,3.15,0,0,1,.69-.17,8.31,8.31,0,0,1,1.23,0,.75.75,0,0,1,.56.2.56.56,0,0,1,.19.41.58.58,0,0,1-.18.42A.82.82,0,0,1,21,43.79ZM17.26,32.25q0,.53-.18,1.5c-.09.65-.2,1.35-.32,2.11s-.25,1.53-.39,2.29S16.1,39.6,16,40.2a2.72,2.72,0,0,1-.39,1,.9.9,0,0,1-.46.38.27.27,0,0,1-.34-.15,1,1,0,0,1,0-.68c.13-.66.26-1.4.39-2.2s.25-1.59.36-2.37.2-1.52.27-2.21.1-1.24.12-1.68l-.79.13-1.24.2-1.48.23-1.5.23-1.31.2c-.39.07-.7.12-.91.17a3,3,0,0,0-.77.26,2.88,2.88,0,0,1-.83.25,2.7,2.7,0,0,1-1.22-.08,7.28,7.28,0,0,1-1.15-.43c-.23-.11-.31-.25-.25-.42a.51.51,0,0,1,.49-.28c.47,0,.9,0,1.28,0s.83-.06,1.34-.11c.21,0,.53-.05,1-.11l1.41-.19L11.53,32l1.53-.23,1.19-.19.58-.11a9.07,9.07,0,0,0,1.08-.36A2.89,2.89,0,0,1,17.09,31a.27.27,0,0,1,.23.14.79.79,0,0,1,.1.35,2,2,0,0,1,0,.42A1.6,1.6,0,0,1,17.26,32.25Z"/><path class="cls-1" d="M41.63,47.59a3.47,3.47,0,0,1-.21,1.27,1.38,1.38,0,0,1-.45.63.34.34,0,0,1-.45-.08,1.33,1.33,0,0,1-.21-.87V29.07a.91.91,0,0,0-.48-.4c-.26-.12-.52-.24-.8-.35s-.52-.23-.75-.34-.34-.22-.34-.31.09-.23.27-.3A2.2,2.2,0,0,1,39,27.3l.77.07.79.13.67.15a2,2,0,0,1,.41.16.41.41,0,0,1,.11.47,2.26,2.26,0,0,0-.08.6Zm-14.79-7.1a1.12,1.12,0,0,0-1-1.21.23.23,0,0,1-.17-.13.7.7,0,0,1,0-.25.48.48,0,0,1,.07-.23.27.27,0,0,1,.22-.09c.32,0,.68,0,1.08,0a8,8,0,0,1,1.2,0L31.69,38a7.92,7.92,0,0,0,1-.24c.32-.1.67-.19,1-.27L33.89,33q-.36,0-.9.15l-1.12.19-1.19.21-1.06.2a3,3,0,0,0-.77.26,2.88,2.88,0,0,1-.83.25,3.22,3.22,0,0,1-1.22-.09,7.3,7.3,0,0,1-1.15-.42c-.23-.11-.31-.25-.24-.43s.22-.27.48-.27c.47,0,.9,0,1.28,0s.84-.06,1.34-.11a10.28,10.28,0,0,0,1.1-.12l1.39-.2,1.24-.21a5,5,0,0,0,.68-.14,2.93,2.93,0,0,0,.57-.19,5.17,5.17,0,0,1,.51-.18,4.54,4.54,0,0,1,.53-.12,2.72,2.72,0,0,1,.65,0,.36.36,0,0,1,.34.18.67.67,0,0,1,0,.35.93.93,0,0,1-.12.38.77.77,0,0,1-.19.25,8.43,8.43,0,0,0-.09.87c0,.39,0,.81-.09,1.25s-.08.89-.11,1.32-.07.81-.1,1.12a.76.76,0,0,1,.52.18.42.42,0,0,1,.14.35.62.62,0,0,1-.21.36.86.86,0,0,1-.5.22l-6.67,1v4.82a.32.32,0,0,0,.21.34.67.67,0,0,0,.35,0c.63-.1,1.31-.22,2.05-.36S32.24,44,33,43.78s1.54-.44,2.31-.69,1.53-.54,2.26-.83a.44.44,0,0,1,.39,0,.37.37,0,0,1,.17.25.56.56,0,0,1-.08.35.57.57,0,0,1-.31.28q-1.09.51-2.31,1c-.81.3-1.61.57-2.41.81s-1.58.46-2.35.63-1.47.32-2.12.42a1.82,1.82,0,0,1-1.23-.22,1.06,1.06,0,0,1-.49-1Z"/><path class="cls-1" d="M55.4,45V40a.69.69,0,0,0-.33-.3l-.47-.2a1.92,1.92,0,0,1-.43-.18.27.27,0,0,1-.18-.24q0-.2.27-.27a4.18,4.18,0,0,1,.75-.12,5.11,5.11,0,0,1,.92.06,1.8,1.8,0,0,1,.75.26c.13.08.17.23.11.46a2.22,2.22,0,0,0-.08.58v4.7l1.92-.29c.64-.09,1.24-.19,1.81-.29L62,43.92l1.27-.25a3.7,3.7,0,0,0,.81-.23c.18-.09.37-.17.55-.24a3.37,3.37,0,0,1,.7-.18,7.35,7.35,0,0,1,1.23,0,.75.75,0,0,1,.56.19.58.58,0,0,1,.19.42.65.65,0,0,1-.18.42.81.81,0,0,1-.54.25l-4.59.6c-1.61.21-3.17.43-4.66.65l-4.05.61q-1.8.27-2.73.45a6.38,6.38,0,0,0-.73.21A4.09,4.09,0,0,1,49,47a2.73,2.73,0,0,1-1.33-.12,9.53,9.53,0,0,1-1.17-.46c-.22-.11-.3-.24-.23-.4a.38.38,0,0,1,.36-.23c.46,0,.93,0,1.4,0s1-.06,1.46-.11l2.77-.3C53.26,45.26,54.31,45.11,55.4,45ZM62.84,32c-.05.54-.11,1.14-.18,1.79s-.16,1.3-.26,2-.2,1.29-.31,1.89-.22,1.13-.32,1.57a2.42,2.42,0,0,1-.39.95.85.85,0,0,1-.46.38.3.3,0,0,1-.34-.16,1,1,0,0,1,0-.67c.1-.51.2-1.1.3-1.76s.2-1.35.28-2.05.15-1.4.21-2.08.09-1.28.11-1.81l-.79.13-1.24.19L58,32.56l-1.5.23L55.14,33c-.39.06-.7.12-.91.17a3,3,0,0,0-.77.25,2.64,2.64,0,0,1-.83.26,2.71,2.71,0,0,1-1.22-.09,7,7,0,0,1-1.15-.42c-.23-.11-.31-.25-.25-.43a.5.5,0,0,1,.49-.27c.47,0,.89,0,1.28,0s.84-.06,1.34-.11c.21,0,.53,0,1-.11L55.49,32l1.62-.23,1.53-.23,1.19-.2.59-.1c.41-.12.77-.24,1.07-.36a3.06,3.06,0,0,1,1.18-.16.26.26,0,0,1,.23.15.76.76,0,0,1,.1.35,1.39,1.39,0,0,1,0,.41A1.52,1.52,0,0,1,62.84,32Z"/><path class="cls-1" d="M18.33,75.73,10.15,76.9a1,1,0,0,1-.19.6.35.35,0,0,1-.35.16c-.12,0-.23-.13-.34-.3a1.65,1.65,0,0,1-.18-.75L8.9,72a1.16,1.16,0,0,0-1-1.21.22.22,0,0,1-.17-.14.47.47,0,0,1,0-.24.37.37,0,0,1,.07-.23.27.27,0,0,1,.22-.1c.32,0,.68,0,1.08,0a9.65,9.65,0,0,1,1.2,0q.31,0,.87-.09l1.21-.17,1.35-.21,1.27-.2,1-.17.5-.1A3.83,3.83,0,0,0,17,69a3.52,3.52,0,0,1,.51-.19l.53-.12a2.65,2.65,0,0,1,.64,0,.41.41,0,0,1,.35.18.68.68,0,0,1,0,.35.89.89,0,0,1-.12.38.67.67,0,0,1-.19.25c0,.23-.08.55-.12,1s-.1.85-.15,1.31-.09.92-.14,1.37-.09.85-.12,1.19a.88.88,0,0,1,.62.13.48.48,0,0,1,.2.37.54.54,0,0,1-.18.38A.9.9,0,0,1,18.33,75.73Zm.5-10.4a3.2,3.2,0,0,1-.2,1.26,1.27,1.27,0,0,1-.45.63.32.32,0,0,1-.45-.07,1.3,1.3,0,0,1-.2-.87V56a1,1,0,0,0-.49-.4l-.8-.35c-.27-.11-.53-.22-.75-.33s-.34-.2-.34-.3.09-.23.27-.29a1.81,1.81,0,0,1,.75-.07,7.28,7.28,0,0,1,.78,0l.78.13.67.15a2,2,0,0,1,.41.16.41.41,0,0,1,.11.47,2.3,2.3,0,0,0-.09.6ZM10.2,76l5.24-.73a5.12,5.12,0,0,0,.92-.19l.85-.24L17.33,70l-2,.27-2,.29-1.79.28-1.27.2v3.36C10.23,75,10.22,75.48,10.2,76Zm3.3-17.11a18.12,18.12,0,0,1-1.9,3.29,27.83,27.83,0,0,1-2.55,3.05,36.55,36.55,0,0,1-2.77,2.58,31.14,31.14,0,0,1-2.62,2,.74.74,0,0,1-.45.13.36.36,0,0,1-.3-.13.31.31,0,0,1-.05-.31A.76.76,0,0,1,3.17,69,28.67,28.67,0,0,0,5.5,67.11,32.47,32.47,0,0,0,7.94,64.7a29.57,29.57,0,0,0,2.26-2.79,21.38,21.38,0,0,0,1.85-3c-.25,0-.55.08-.91.15L10,59.2c-.41.06-.82.13-1.22.21l-1.07.2a2.68,2.68,0,0,0-.77.26,2.88,2.88,0,0,1-.83.25A2.85,2.85,0,0,1,4.86,60a8.42,8.42,0,0,1-1.15-.43c-.23-.1-.31-.23-.25-.41A.46.46,0,0,1,4,58.93q.7,0,1.29-.06c.38,0,.83-.06,1.33-.11l1.14-.13L9,58.45l1.15-.19a4.67,4.67,0,0,0,.64-.13,9.2,9.2,0,0,0,1.08-.35,3.06,3.06,0,0,1,1.18-.16.5.5,0,0,1,.29.11.7.7,0,0,1,.22.29.84.84,0,0,1,.06.39A.88.88,0,0,1,13.5,58.84Z"/><path class="cls-1" d="M41.63,74.5a3.45,3.45,0,0,1-.21,1.26,1.38,1.38,0,0,1-.45.63.32.32,0,0,1-.45-.09,1.41,1.41,0,0,1-.21-.88V63.17l-.74.18-.88.19-.79.16-.49.08a3.88,3.88,0,0,1-1,0,3.22,3.22,0,0,1-.78-.18c-.23-.08-.32-.21-.28-.4a.39.39,0,0,1,.43-.28,8.16,8.16,0,0,0,.83-.06c.37,0,.66-.07.86-.11l.43-.08.76-.13.89-.16.78-.14V56a1,1,0,0,0-.48-.38l-.8-.35c-.27-.11-.52-.22-.75-.34s-.34-.21-.34-.31.09-.23.27-.29A1.94,1.94,0,0,1,39,54.2c.24,0,.5,0,.77.08s.54.07.79.12a6.66,6.66,0,0,1,.67.16,2.17,2.17,0,0,1,.41.15c.13.08.17.24.11.46a2.38,2.38,0,0,0-.08.61ZM33.43,60a6.12,6.12,0,0,1-.52,2.1A22.62,22.62,0,0,1,31.51,65l1.85,1.31a3.54,3.54,0,0,0,.75.43c.26.12.51.24.76.38a4.34,4.34,0,0,1,.74.52,3.94,3.94,0,0,1,.71.85,1.32,1.32,0,0,1,.2.73,1.21,1.21,0,0,1-.16.6.5.5,0,0,1-.4.28c-.17,0-.34-.07-.52-.3l-.71-.67L33.5,68l-1.37-1.19c-.46-.39-.84-.73-1.15-1a33.74,33.74,0,0,1-2.42,3.4,21.45,21.45,0,0,1-2.84,2.93.77.77,0,0,1-.41.18.4.4,0,0,1-.31-.09.32.32,0,0,1-.09-.28.62.62,0,0,1,.23-.4,27.37,27.37,0,0,0,2.39-2.68,26.82,26.82,0,0,0,2-2.94A19.87,19.87,0,0,0,31,63.08a7.88,7.88,0,0,0,.61-2.45,1.14,1.14,0,0,0-.32-.45c-.16-.15-.33-.3-.51-.44s-.33-.27-.47-.4-.2-.24-.18-.33.15-.23.36-.3a1.7,1.7,0,0,1,.78,0,6.27,6.27,0,0,1,.71.22,5.52,5.52,0,0,1,.69.32,2.15,2.15,0,0,1,.52.36A.55.55,0,0,1,33.43,60Z"/><path class="cls-1" d="M65.46,75.42,56.32,76.7A1.92,1.92,0,0,1,55,76.51a1,1,0,0,1-.53-1V72.39a.59.59,0,0,0-.4-.31L53.46,72c-.21,0-.4-.07-.57-.11s-.26-.11-.26-.2a.38.38,0,0,1,.19-.32,2.1,2.1,0,0,1,.68-.19l.53-.06c.22,0,.44,0,.67,0a4.6,4.6,0,0,1,.65,0,1.05,1.05,0,0,1,.41.1.35.35,0,0,1,.11.42,1.81,1.81,0,0,0-.09.55v3.32a.32.32,0,0,0,.21.34.78.78,0,0,0,.35,0l5.8-.85a3.13,3.13,0,0,0,.89-.21l.55-.24a3.36,3.36,0,0,1,.64-.18,5.8,5.8,0,0,1,1.21,0,.83.83,0,0,1,.56.16.45.45,0,0,1,.2.36.56.56,0,0,1-.19.39A.9.9,0,0,1,65.46,75.42Zm-1-6.55a3.2,3.2,0,0,1-.2,1.26,1.27,1.27,0,0,1-.45.63.32.32,0,0,1-.45-.07,1.3,1.3,0,0,1-.2-.87V64.48l-.59.15-.63.15-.57.12-.4.07a3.81,3.81,0,0,1-1,0,3.63,3.63,0,0,1-.78-.16c-.23-.08-.32-.21-.28-.41s.18-.29.42-.29a8.13,8.13,0,0,0,.84-.06L61,64a1.43,1.43,0,0,0,.34-.05l.56-.11.64-.12.6-.11v-3.2l-.59.15-.63.14-.57.12-.4.08a4.28,4.28,0,0,1-1,0,3.63,3.63,0,0,1-.78-.16c-.23-.08-.32-.22-.28-.41S59,60,59.27,60a8.13,8.13,0,0,0,.84-.06l.86-.11a2.28,2.28,0,0,0,.34,0l.56-.11.64-.12.6-.11V56.17a.94.94,0,0,0-.49-.4c-.26-.12-.52-.24-.8-.35l-.75-.33c-.23-.1-.34-.21-.34-.3s.09-.23.27-.29a1.94,1.94,0,0,1,.75-.08,7.09,7.09,0,0,1,.77,0c.28,0,.54.07.79.12s.47.1.67.16a2,2,0,0,1,.41.16.4.4,0,0,1,.11.47,2.29,2.29,0,0,0-.09.59Zm-5.81-6.3a6,6,0,0,1-.27,1.79A4.71,4.71,0,0,1,57.48,66,4.93,4.93,0,0,1,56,67.16a6.11,6.11,0,0,1-2.15.67,5.79,5.79,0,0,1-2.14-.06A3.82,3.82,0,0,1,50.16,67a3.43,3.43,0,0,1-.95-1.31A4.51,4.51,0,0,1,48.9,64a4,4,0,0,1,.35-1.71A4.63,4.63,0,0,1,50.17,61a5.84,5.84,0,0,1,1.26-1,12.39,12.39,0,0,1,1.39-.65c.2-.07.3-.17.3-.32a.41.41,0,0,0-.11-.28,2.23,2.23,0,0,0-.24-.19l-.25-.16a.21.21,0,0,1-.11-.17c0-.09.12-.16.34-.2a2.11,2.11,0,0,1,.75,0,1.78,1.78,0,0,1,.76.33.78.78,0,0,1,.31.71,6,6,0,0,1,1.65.36,4.16,4.16,0,0,1,1.27.76,3.36,3.36,0,0,1,.82,1.06A3,3,0,0,1,58.6,62.57ZM54,59.88a2.33,2.33,0,0,1-.39.19,6.15,6.15,0,0,0-1.33.58,4.68,4.68,0,0,0-1.06.84,3.41,3.41,0,0,0-.7,1.08,3.32,3.32,0,0,0-.25,1.31,4,4,0,0,0,.21,1.32,2.45,2.45,0,0,0,.67,1,2.55,2.55,0,0,0,1.11.57,3.94,3.94,0,0,0,1.55,0,4.27,4.27,0,0,0,1.57-.51,4.17,4.17,0,0,0,1.13-.93,3.58,3.58,0,0,0,.66-1.21,4.27,4.27,0,0,0,.22-1.37,2.44,2.44,0,0,0-.24-1,2.78,2.78,0,0,0-.68-.89,3.31,3.31,0,0,0-1.07-.64A5,5,0,0,0,54,59.88Z"/><path class="cls-1" d="M16.82,110.63a24.28,24.28,0,0,1-2.66,4.6,38.24,38.24,0,0,1-3.55,4.25,45.9,45.9,0,0,1-3.87,3.6,41.75,41.75,0,0,1-3.65,2.74,1.11,1.11,0,0,1-.63.19.52.52,0,0,1-.42-.19.47.47,0,0,1-.07-.44,1,1,0,0,1,.44-.54c1-.74,2.1-1.63,3.25-2.65s2.28-2.15,3.4-3.37a43.19,43.19,0,0,0,3.16-3.89,29.86,29.86,0,0,0,2.57-4.27l-1.27.21-1.62.29-1.71.3c-.56.1-1.06.19-1.49.25a6.16,6.16,0,0,0-1.08.38,4.35,4.35,0,0,1-1.15.34,4,4,0,0,1-1.71-.12,10,10,0,0,1-1.61-.6c-.31-.13-.43-.32-.34-.57s.32-.37.68-.37c.66,0,1.25,0,1.8,0l1.85-.15,1.6-.21,1.86-.27,1.6-.25a6.75,6.75,0,0,0,.9-.19,13.49,13.49,0,0,0,1.51-.49,4.06,4.06,0,0,1,1.64-.22.66.66,0,0,1,.4.15,1,1,0,0,1,.31.41A1.39,1.39,0,0,1,17,110,1.13,1.13,0,0,1,16.82,110.63Zm8.73,24-12.42,1.76a2.64,2.64,0,0,1-1.82-.29,1.5,1.5,0,0,1-.75-1.37v-2.23a1.58,1.58,0,0,0-1.42-1.69.36.36,0,0,1-.24-.19.87.87,0,0,1-.06-.32.5.5,0,0,1,.1-.31.35.35,0,0,1,.3-.13c.45,0,.95,0,1.51-.07a9.31,9.31,0,0,1,1.67,0l6.77-1a7.2,7.2,0,0,0,1.35-.29c.38-.12.8-.24,1.25-.35l.14-3.69c-.34.07-.84.15-1.49.25l-2.1.34-2.18.37-1.71.29a6,6,0,0,0-1.08.37,4,4,0,0,1-1.15.34,3.88,3.88,0,0,1-1.71-.12,10,10,0,0,1-1.61-.59c-.31-.13-.43-.32-.33-.57s.31-.37.67-.37c.66,0,1.25,0,1.8-.07l1.86-.14q.57-.06,1.77-.24l2.46-.35c.83-.13,1.58-.24,2.26-.36l1.19-.2a5.24,5.24,0,0,0,.79-.25,6.86,6.86,0,0,1,.71-.27,3.72,3.72,0,0,1,.75-.17,4.25,4.25,0,0,1,.89,0,.54.54,0,0,1,.48.24.8.8,0,0,1,.06.47,1.49,1.49,0,0,1-.17.53,1.18,1.18,0,0,1-.27.35c-.07.52-.15,1.12-.25,1.81s-.19,1.3-.25,1.84a1.2,1.2,0,0,1,.71.29.62.62,0,0,1,.17.49.89.89,0,0,1-.29.51,1.22,1.22,0,0,1-.69.3l-10.83,1.53v3.48a.42.42,0,0,0,.3.46,1.4,1.4,0,0,0,.51.05L20.91,134a4.4,4.4,0,0,0,1.26-.28l.76-.34a3.85,3.85,0,0,1,.89-.25,8.7,8.7,0,0,1,1.69-.07,1.19,1.19,0,0,1,.78.22.62.62,0,0,1,.27.5.76.76,0,0,1-.25.55A1.3,1.3,0,0,1,25.55,134.62ZM22.44,117.8l-1.05.24-1.22.26c-.41.07-.77.15-1.1.22l-.69.13a5.65,5.65,0,0,1-1.42,0,4.05,4.05,0,0,1-1.09-.26.51.51,0,0,1-.33-.23.43.43,0,0,1-.07-.34.48.48,0,0,1,.18-.29.69.69,0,0,1,.43-.12c.27,0,.66,0,1.16-.07s.91-.08,1.2-.13l.6-.12,1.06-.19,1.24-.21c.41-.08.78-.15,1.1-.19v-3.79l-.88.22-1,.22-.9.19-.61.11a5.22,5.22,0,0,1-1.42,0,4.11,4.11,0,0,1-1.08-.25c-.32-.12-.45-.3-.39-.56s.25-.39.59-.39.66,0,1.17-.08.91-.11,1.2-.16l.53-.1.87-.15,1-.18.92-.18v-4.73a1.41,1.41,0,0,0-.68-.53c-.36-.17-.73-.33-1.12-.49s-.73-.31-1.05-.47-.47-.3-.47-.44.13-.32.37-.41a2.86,2.86,0,0,1,1.05-.1l1.08.1,1.1.16a6.52,6.52,0,0,1,.93.2,1.7,1.7,0,0,1,.58.25q.27.18.15.63a3.26,3.26,0,0,0-.12.83v12.25a4.35,4.35,0,0,1-.29,1.75,1.79,1.79,0,0,1-.62.88.46.46,0,0,1-.63-.1,1.86,1.86,0,0,1-.28-1.22Z"/><path class="cls-1" d="M43.31,124.13v-3.25a5.91,5.91,0,0,1-3.94-1A3.44,3.44,0,0,1,38,117a4.15,4.15,0,0,1,.49-2,6.47,6.47,0,0,1,1.24-1.61,7.62,7.62,0,0,1,1.62-1.18,8.4,8.4,0,0,1,1.69-.71.44.44,0,0,0,.34-.38.45.45,0,0,0-.23-.37l-2,.32-1.64.29a7.24,7.24,0,0,0-1,.32,4.12,4.12,0,0,1-1.22.29A4.24,4.24,0,0,1,35.7,112a6.19,6.19,0,0,1-1.46-.44c-.31-.16-.42-.34-.32-.56a.52.52,0,0,1,.49-.32c.39,0,.89,0,1.51,0s1.28-.1,2-.18c.45-.05,1-.12,1.71-.22l2.19-.33,2.36-.35,2.16-.35,1.68-.3.89-.15a4.63,4.63,0,0,0,.8-.33,2.89,2.89,0,0,1,.64-.29,5.11,5.11,0,0,1,.91-.19,15.21,15.21,0,0,1,1.58-.07,1.24,1.24,0,0,1,.77.22.65.65,0,0,1,.27.5.73.73,0,0,1-.25.52,1.24,1.24,0,0,1-.76.32c-.25.05-.63.1-1.15.17l-1.81.25-2.27.33c-.82.11-1.65.23-2.48.37a.78.78,0,0,1,.23.67,6.45,6.45,0,0,1,3.76,1.32,3.44,3.44,0,0,1,1.35,2.68,5,5,0,0,1-1.32,3.41,7.26,7.26,0,0,1-4,2.07v3.21c1.62-.25,3.13-.49,4.53-.73s2.55-.44,3.45-.62a4.66,4.66,0,0,0,1.13-.32c.26-.13.52-.24.78-.34a4.73,4.73,0,0,1,1-.24,11.87,11.87,0,0,1,1.72,0,1.06,1.06,0,0,1,.78.27.8.8,0,0,1,.27.57.88.88,0,0,1-.25.6,1.18,1.18,0,0,1-.76.35q-3,.38-6.4.83l-6.51.91-5.65.85q-2.52.39-3.81.63a7,7,0,0,0-1,.3,5.87,5.87,0,0,1-1.22.31A4.06,4.06,0,0,1,31.3,127a12.68,12.68,0,0,1-1.62-.65c-.32-.15-.43-.34-.33-.55a.52.52,0,0,1,.49-.33c.66,0,1.31,0,2,0s1.33-.09,2-.16c1.28-.11,2.76-.27,4.41-.49S41.59,124.38,43.31,124.13ZM52.44,134l-13.09,1.86a2.59,2.59,0,0,1-1.82-.29,1.49,1.49,0,0,1-.75-1.37v-3.38a.84.84,0,0,0-.56-.39,6.25,6.25,0,0,0-.86-.18c-.29,0-.56-.1-.79-.16s-.36-.15-.36-.28a.53.53,0,0,1,.27-.45,2.81,2.81,0,0,1,1-.27l.72-.08c.31,0,.63-.06,1-.07a8.61,8.61,0,0,1,.9,0,1.49,1.49,0,0,1,.57.13.47.47,0,0,1,.16.58,2.74,2.74,0,0,0-.12.78v3.62a.44.44,0,0,0,.29.47.68.68,0,0,0,.48,0l8.43-1.22a4.4,4.4,0,0,0,1.25-.28l.76-.34a4.1,4.1,0,0,1,.9-.25,8.65,8.65,0,0,1,1.69-.07,1.19,1.19,0,0,1,.78.22.63.63,0,0,1,.27.51.79.79,0,0,1-.25.54A1.34,1.34,0,0,1,52.44,134Zm-4.67-27.34-5.14.72a5.92,5.92,0,0,1-1.52-.09,5.72,5.72,0,0,1-1.45-.42.55.55,0,0,1-.31-.26.32.32,0,0,1,0-.27.52.52,0,0,1,.18-.22.55.55,0,0,1,.31-.1h.69l.79,0,.77,0a5.26,5.26,0,0,0,.55,0c.25,0,.61-.07,1.09-.14l1.5-.18,1.49-.15a10.25,10.25,0,0,1,1-.07,1.41,1.41,0,0,1,.78.17.52.52,0,0,1,.29.39.57.57,0,0,1-.24.44A1.5,1.5,0,0,1,47.77,106.67Zm-3.11,5.59a4.8,4.8,0,0,1-.57.27,7.86,7.86,0,0,0-3,1.64,3.5,3.5,0,0,0-1.16,2.69,2.34,2.34,0,0,0,.35,1.28,2.51,2.51,0,0,0,.95.85,4,4,0,0,0,1.4.4,6.3,6.3,0,0,0,1.73,0,7.46,7.46,0,0,0,1.76-.47,5.69,5.69,0,0,0,1.42-.85,3.85,3.85,0,0,0,1-1.15,2.86,2.86,0,0,0,.36-1.42,2.77,2.77,0,0,0-1.12-2.13A5.18,5.18,0,0,0,44.66,112.26Z"/><path class="cls-1" d="M75.69,111.85c-.41,0-1,.11-1.61.2l-2.22.33-2.55.4-2.63.46a5.29,5.29,0,0,0-1,.32,4.85,4.85,0,0,1-1.22.29,4.75,4.75,0,0,1-1.52-.07,6,6,0,0,1-1.45-.44c-.32-.16-.43-.34-.33-.56a.53.53,0,0,1,.49-.32c.39,0,.89,0,1.51,0s1.28-.1,2-.19,1.37-.18,2.08-.29l2-.3c.61-.1,1.14-.2,1.59-.29s.77-.15,1-.2a5.52,5.52,0,0,0,.79-.32,4.74,4.74,0,0,1,.64-.27,5.15,5.15,0,0,1,.92-.2,10.41,10.41,0,0,1,1.57-.09,1.19,1.19,0,0,1,.78.22.66.66,0,0,1,.27.51.79.79,0,0,1-.25.54A1.27,1.27,0,0,1,75.69,111.85Zm-.34,7a5.48,5.48,0,0,1-.43,2.1,6,6,0,0,1-1.2,1.84,6.48,6.48,0,0,1-1.88,1.39,7.63,7.63,0,0,1-2.45.76,7,7,0,0,1-2.42-.08,5.88,5.88,0,0,1-2-.83,4.25,4.25,0,0,1-1.33-1.44,3.77,3.77,0,0,1-.49-1.91,4.48,4.48,0,0,1,.47-2.08,6.36,6.36,0,0,1,1.2-1.64,8.24,8.24,0,0,1,1.58-1.2A7.61,7.61,0,0,1,68,115a.45.45,0,0,0,.34-.37.38.38,0,0,0-.12-.29,1.35,1.35,0,0,0-.27-.2L67.7,114a.26.26,0,0,1-.14-.22c0-.14.16-.23.46-.29a3.68,3.68,0,0,1,1,0,2.36,2.36,0,0,1,1,.36.87.87,0,0,1,.41.83,7.71,7.71,0,0,1,2.11.45,4.81,4.81,0,0,1,1.56.94,4.14,4.14,0,0,1,1,1.28A3.7,3.7,0,0,1,75.35,118.85Zm-5.65-3.11a1.83,1.83,0,0,1-.58.27,6.78,6.78,0,0,0-2.91,1.68,3.85,3.85,0,0,0-1.08,2.82,2.76,2.76,0,0,0,1.18,2.5,4.35,4.35,0,0,0,3.08.51,6,6,0,0,0,1.76-.52,4.51,4.51,0,0,0,1.37-1,4.57,4.57,0,0,0,.88-1.31,3.86,3.86,0,0,0,.32-1.54,3.12,3.12,0,0,0-1-2.28A4.52,4.52,0,0,0,69.7,115.74Zm2.43-7.31-3.62.55a5,5,0,0,1-1.52-.13,6.67,6.67,0,0,1-1.46-.45c-.31-.16-.42-.35-.32-.56a.53.53,0,0,1,.49-.32h1.49c.27,0,.53,0,.76,0a5.23,5.23,0,0,0,.56,0,14.92,14.92,0,0,1,1.68-.2l1.91-.14a.88.88,0,0,1,.66.16.55.55,0,0,1,.22.42.71.71,0,0,1-.22.47A.92.92,0,0,1,72.13,108.43Zm.1,27.95a2.37,2.37,0,0,1-.47.86.7.7,0,0,1-.52.27.57.57,0,0,1-.44-.35,2.21,2.21,0,0,1-.19-1v-7.68a1,1,0,0,0-.54-.49,8.51,8.51,0,0,0-.83-.34,7,7,0,0,1-.76-.32c-.23-.11-.34-.24-.34-.38s.12-.31.37-.42a3.32,3.32,0,0,1,1-.18,15.63,15.63,0,0,1,1.64.08,2.65,2.65,0,0,1,1.2.32.6.6,0,0,1,.15.68,3.87,3.87,0,0,0-.11.81V130l9.88-1.56v-2.7a1.21,1.21,0,0,0-.55-.48,7.64,7.64,0,0,0-.83-.35,6.71,6.71,0,0,1-.75-.33c-.23-.11-.34-.23-.34-.37s.12-.32.37-.42a2.92,2.92,0,0,1,1-.15,9.24,9.24,0,0,1,1.64.07,2.86,2.86,0,0,1,1.2.33q.27.18.15.66a3.66,3.66,0,0,0-.12.83v7.28a4.69,4.69,0,0,1-.24,1.62,2.29,2.29,0,0,1-.53.91.53.53,0,0,1-.6.14q-.28-.13-.39-.75Zm.21-1.59v.13l9.88-1.56v-3.48l-9.88,1.56Zm11.7-15.5a4.6,4.6,0,0,1-.28,1.76,1.91,1.91,0,0,1-.63.88.45.45,0,0,1-.63-.12,1.91,1.91,0,0,1-.28-1.23V107a1.41,1.41,0,0,0-.68-.53c-.36-.17-.73-.33-1.12-.49s-.73-.32-1-.47S79,105.15,79,105s.12-.32.37-.41a2.86,2.86,0,0,1,1-.1c.34,0,.7.06,1.08.1s.75.1,1.1.17.66.14.93.22a2.43,2.43,0,0,1,.58.22c.18.11.23.33.15.64a3.53,3.53,0,0,0-.12.85v7.48l1-.17a2.94,2.94,0,0,0,.93-.28,5.67,5.67,0,0,1,.7-.31,4.67,4.67,0,0,1,1-.28,8.42,8.42,0,0,1,1.74-.08,1.19,1.19,0,0,1,.78.22.66.66,0,0,1,.27.51.75.75,0,0,1-.25.54,1.41,1.41,0,0,1-.77.32l-5.41.78Z"/><path class="cls-1" d="M92.77,113.3a.49.49,0,0,1,.27-.43,2.35,2.35,0,0,1,.94-.27c.19,0,.45,0,.78-.07s.69,0,1,0,.7,0,1,.05a2,2,0,0,1,.63.15.5.5,0,0,1,.15.6,2.56,2.56,0,0,0-.12.76v10.12a.45.45,0,0,0,.29.47,1,1,0,0,0,.49.07,40.76,40.76,0,0,0,5.82-1.31,63.16,63.16,0,0,0,6.22-2.21.7.7,0,0,1,.54,0,.43.43,0,0,1,.24.34.88.88,0,0,1-.1.51.82.82,0,0,1-.44.4q-1.56.75-3.18,1.41c-1.08.44-2.17.84-3.25,1.22s-2.13.69-3.16,1a28.54,28.54,0,0,1-2.9.61,2.38,2.38,0,0,1-1.7-.32,1.53,1.53,0,0,1-.7-1.37V114.42A.87.87,0,0,0,95,114a6.08,6.08,0,0,0-1-.22c-.33-.06-.63-.12-.89-.19S92.77,113.44,92.77,113.3Zm22.83,19.09a4.55,4.55,0,0,1-.28,1.75,1.78,1.78,0,0,1-.63.88.45.45,0,0,1-.63-.11,2,2,0,0,1-.28-1.24V106.51a1.41,1.41,0,0,0-.68-.53c-.36-.17-.73-.33-1.12-.49s-.73-.32-1-.47-.48-.31-.48-.44.12-.32.37-.41a2.86,2.86,0,0,1,1-.1c.34,0,.7.06,1.09.1s.75.1,1.09.17.67.14.94.22a2.71,2.71,0,0,1,.57.22c.18.11.23.33.15.64a3.53,3.53,0,0,0-.12.85Z"/><path class="cls-1" d="M126.56,114.29v11.09a.44.44,0,0,0,.29.47.72.72,0,0,0,.49,0c.88-.11,1.83-.28,2.86-.51s2.07-.49,3.13-.79,2.14-.65,3.23-1,2.15-.79,3.16-1.22a.63.63,0,0,1,.55,0,.46.46,0,0,1,.23.34.83.83,0,0,1-.1.49.93.93,0,0,1-.44.41c-1,.49-2.12,1-3.25,1.42s-2.25.86-3.36,1.23-2.21.69-3.27,1-2,.47-2.94.61a2.35,2.35,0,0,1-1.71-.29,1.54,1.54,0,0,1-.69-1.37V115.64a1.26,1.26,0,0,0-.51-1.08A3.31,3.31,0,0,0,123,114a.39.39,0,0,1-.3-.48.45.45,0,0,1,.4-.47,12.35,12.35,0,0,1,1.66-.12c.66,0,1.26,0,1.83,0l4.33-.61a6.17,6.17,0,0,0,1.25-.3c.27-.11.52-.23.76-.34a4,4,0,0,1,.9-.27,8.65,8.65,0,0,1,1.69-.07,1.39,1.39,0,0,1,.78.25.66.66,0,0,1,.27.51.69.69,0,0,1-.26.52,1.27,1.27,0,0,1-.76.31ZM145,132.86a4.58,4.58,0,0,1-.29,1.76,1.9,1.9,0,0,1-.63.88.46.46,0,0,1-.62-.1,1.81,1.81,0,0,1-.29-1.22V107a1.33,1.33,0,0,0-.68-.56l-1.11-.49a10.54,10.54,0,0,1-1-.47c-.32-.16-.48-.31-.48-.44s.13-.31.38-.41a3,3,0,0,1,1-.1l1.09.1,1.1.17c.35.07.65.15.93.22a2.5,2.5,0,0,1,.57.22.58.58,0,0,1,.15.66,3.8,3.8,0,0,0-.11.83v11.2l1.05-.14a2.73,2.73,0,0,0,.92-.27l.7-.33a3.81,3.81,0,0,1,1-.28,10.7,10.7,0,0,1,1.74-.06,1.19,1.19,0,0,1,.78.22.62.62,0,0,1,.27.5.7.7,0,0,1-.25.53,1.3,1.3,0,0,1-.76.3l-5.41.78Z"/></svg>